<svg width="58" height="76" viewBox="0 0 58 76" fill="none" xmlns="http://www.w3.org/2000/svg">
<path d="M30.1743 28.699V31.0331C30.1727 31.2059 30.2053 31.3772 30.2703 31.5373C30.3353 31.6973 30.4313 31.8429 30.5529 31.9656C30.6745 32.0884 30.8192 32.1858 30.9786 32.2522C31.1381 32.3187 31.3091 32.3529 31.4818 32.3529H42.1624C42.3352 32.3529 42.5062 32.3187 42.6657 32.2522C42.8251 32.1858 42.9698 32.0884 43.0914 31.9656C43.213 31.8429 43.309 31.6973 43.374 31.5373C43.439 31.3772 43.4716 31.2059 43.47 31.0331V22.2223C43.4709 21.8749 43.3348 21.5412 43.0912 21.2935L34.4025 12.6171C34.2821 12.4968 34.1392 12.4015 33.9819 12.3365C33.8247 12.2715 33.6561 12.2381 33.486 12.2382H31.9707V11.114C31.9708 10.9438 31.9374 10.7753 31.8724 10.618C31.8074 10.4607 31.7121 10.3178 31.5918 10.1974L27.7058 6.31136C27.4898 6.10322 27.2099 5.97404 26.9114 5.94475V3.30516H30.6631C31.0099 3.30516 31.3425 3.16739 31.5877 2.92218C31.8329 2.67696 31.9707 2.34437 31.9707 1.99758C31.9707 1.65079 31.8329 1.3182 31.5877 1.07298C31.3425 0.827763 31.0099 0.690002 30.6631 0.690002H20.4346C20.0879 0.690002 19.7553 0.827763 19.51 1.07298C19.2648 1.3182 19.1271 1.65079 19.1271 1.99758C19.1271 2.34437 19.2648 2.67696 19.51 2.92218C19.7553 3.16739 20.0879 3.30516 20.4346 3.30516H24.2963V5.95697C23.997 5.98336 23.7162 6.11296 23.502 6.32358L19.6159 10.2097C19.3723 10.4573 19.2362 10.791 19.2371 11.1384V12.2505H11.2572V7.97333C11.2572 7.62654 11.1194 7.29395 10.8742 7.04873C10.629 6.80352 10.2964 6.66575 9.94959 6.66575H5.5136C5.34062 6.66626 5.16947 6.70109 5.01004 6.76821C4.85062 6.83534 4.7061 6.93343 4.58485 7.0568L0.698783 10.9307C0.455202 11.1783 0.319082 11.512 0.31995 11.8594V27.7459C0.319082 28.0932 0.455202 28.4269 0.698783 28.6746L4.58485 32.5607C4.83252 32.8043 5.16623 32.9404 5.5136 32.9395H9.94959C10.1223 32.9395 10.2934 32.9053 10.4528 32.8388C10.6123 32.7723 10.757 32.6749 10.8785 32.5522C11.0001 32.4295 11.0962 32.2839 11.1612 32.1239C11.2262 31.9638 11.2588 31.7924 11.2572 31.6197V25.5095H27.0581L30.1743 28.699ZM21.8522 11.6639L24.9684 8.54769H26.1904L29.3066 11.6639V12.2382H21.8522V11.6639ZM6.03907 30.3977L2.92289 27.2693V12.3849L6.03907 9.28091H8.61757V12.1527C8.61757 12.1527 8.61757 12.2382 8.61757 12.2749V26.7316C8.61757 26.7316 8.61757 26.8049 8.61757 26.8538V30.3977H6.03907ZM11.2327 23.0655V14.8534H32.9238L40.8426 22.76V29.7256H32.8016V28.1491C32.7974 27.804 32.6568 27.4745 32.4106 27.2326L28.5367 23.3465C28.2876 23.1052 27.9549 22.9694 27.608 22.9677L11.2327 23.0655Z" fill="#CBD5E1"/>
<path d="M42.9201 44.3166V39.0496C42.9196 38.8767 42.8847 38.7055 42.8176 38.5461C42.7505 38.3866 42.6524 38.2421 42.529 38.1209L38.6552 34.2348C38.4061 33.9934 38.0733 33.8577 37.7264 33.856H35.3679C35.1958 33.8549 35.0251 33.8878 34.8658 33.9528C34.7064 34.0178 34.5614 34.1136 34.4392 34.2348L30.5531 38.1209C30.3083 38.3688 30.1683 38.7013 30.162 39.0496V44.5732C28.6472 45.6238 27.4106 47.0272 26.559 48.6622C25.7074 50.2973 25.2664 52.1149 25.2739 53.9585C25.2735 55.9476 25.7908 57.9026 26.7749 59.6313C27.7589 61.36 29.1759 62.8029 30.8865 63.8181C32.5971 64.8332 34.5425 65.3858 36.5313 65.4214C38.5202 65.457 40.484 64.9745 42.2299 64.0212C43.9758 63.0679 45.4435 61.6768 46.4889 59.9844C47.5342 58.2921 48.1211 56.3568 48.192 54.3689C48.2629 52.381 47.8152 50.4089 46.893 48.6464C45.9708 46.8839 44.6059 45.3918 42.9323 44.3166H42.9201ZM32.8016 39.5995L35.9178 36.5078H37.1399L40.256 39.5873V40.1739H32.8016V39.5995ZM36.7244 62.8182C34.786 62.8309 32.8974 62.2049 31.3504 61.037C29.8034 59.869 28.684 58.2241 28.1653 56.3564C27.6466 54.4887 27.7573 52.5022 28.4805 50.7037C29.2036 48.9053 30.4989 47.395 32.1662 46.4063C32.358 46.2873 32.5167 46.1219 32.6278 45.9255C32.7388 45.729 32.7986 45.5077 32.8016 45.282V42.8379H35.4779V45.9175C35.4779 46.6629 35.4779 47.4206 35.4779 48.166C35.4623 48.3638 35.3854 48.5517 35.2579 48.7037C34.6713 49.3147 34.0359 49.9257 33.4615 50.5123C33.2266 50.7473 33.0945 51.066 33.0945 51.3983C33.0945 51.7306 33.2266 52.0493 33.4615 52.2843C33.6965 52.5192 34.0152 52.6513 34.3475 52.6513C34.6798 52.6513 34.9985 52.5192 35.2335 52.2843L36.5899 50.8056L36.7366 50.7445C37.2376 51.2578 37.7509 51.8077 38.2886 52.3332C38.4097 52.4447 38.5517 52.5313 38.7063 52.5879C38.8609 52.6446 39.0252 52.6703 39.1897 52.6635C39.3543 52.6567 39.5159 52.6175 39.6653 52.5483C39.8147 52.479 39.949 52.381 40.0605 52.2598C40.172 52.1387 40.2586 51.9967 40.3153 51.8421C40.372 51.6875 40.3977 51.5232 40.3908 51.3587C40.384 51.1941 40.3449 51.0325 40.2756 50.8831C40.2064 50.7337 40.1084 50.5994 39.9872 50.4879L38.1419 48.6304C38.0312 48.5267 37.9582 48.3891 37.9342 48.2393C37.9342 46.504 37.9342 44.7688 37.9342 43.0212V42.7768H40.256V45.062C40.2587 45.2968 40.3235 45.5268 40.4436 45.7285C40.5638 45.9302 40.7352 46.0966 40.9404 46.2108C42.6611 47.1539 44.0188 48.6431 44.7995 50.4433C45.5802 52.2436 45.7393 54.2525 45.2519 56.1532C44.7645 58.054 43.6581 59.7383 42.1075 60.9407C40.5568 62.1431 38.6499 62.7951 36.6877 62.7938L36.7244 62.8182Z" fill="#CBD5E1"/>
<path d="M21.5222 55.2171C21.6983 55.2457 21.8785 55.2353 22.0501 55.1868C22.2218 55.1384 22.3807 55.0529 22.5158 54.9364C22.6509 54.82 22.7588 54.6753 22.8321 54.5127C22.9053 54.3501 22.9421 54.1734 22.9398 53.9951C22.9421 53.8167 22.9053 53.6401 22.8321 53.4774C22.7588 53.3148 22.6509 53.1702 22.5158 53.0537C22.3807 52.9373 22.2218 52.8518 22.0501 52.8033C21.8785 52.7548 21.6983 52.7445 21.5222 52.773C20.0191 52.773 18.5283 52.773 17.0252 52.773C16.6809 52.7198 16.3288 52.7821 16.0237 52.9501C15.7186 53.1181 15.4778 53.3824 15.3387 53.7018V54.3617C15.4807 54.6795 15.7216 54.9428 16.0256 55.1124C16.3295 55.282 16.6802 55.3487 17.0252 55.3027C18.5283 55.1805 20.0191 55.2171 21.5222 55.2171Z" fill="#CBD5E1"/>
<path d="M56.7658 52.712H51.8165C51.4924 52.712 51.1816 52.8408 50.9524 53.07C50.7232 53.2991 50.5945 53.61 50.5945 53.9341C50.5945 54.2582 50.7232 54.569 50.9524 54.7982C51.1816 55.0274 51.4924 55.1561 51.8165 55.1561C53.4663 55.1561 55.116 55.1561 56.778 55.1561C57.1021 55.1561 57.4129 55.0274 57.6421 54.7982C57.8713 54.569 58 54.2582 58 53.9341C58 53.61 57.8713 53.2991 57.6421 53.07C57.4129 52.8408 57.1021 52.712 56.778 52.712H56.7658Z" fill="#CBD5E1"/>
<path d="M54.615 62.8427C53.2341 62.0361 51.8409 61.2296 50.4601 60.3986C50.2393 60.2912 50.0105 60.2013 49.7757 60.1298C49.498 60.1474 49.2323 60.2492 49.014 60.4217C48.7957 60.5942 48.6351 60.8291 48.5537 61.0952C48.4759 61.3643 48.4929 61.652 48.6019 61.91C48.7109 62.1681 48.9053 62.3809 49.1525 62.5127L53.3685 64.9568C53.5105 65.037 53.667 65.0885 53.8289 65.1083C53.9908 65.1281 54.155 65.1158 54.3122 65.0721C54.4694 65.0284 54.6164 64.9542 54.7449 64.8537C54.8733 64.7532 54.9808 64.6283 55.061 64.4863C55.1413 64.3443 55.1927 64.1878 55.2125 64.0259C55.2323 63.864 55.22 63.6998 55.1763 63.5426C55.1326 63.3854 55.0584 63.2384 54.9579 63.1099C54.8574 62.9815 54.7326 62.874 54.5905 62.7938L54.615 62.8427Z" fill="#CBD5E1"/>
<path d="M36.7366 67.743C36.5676 67.7424 36.4003 67.777 36.2452 67.8444C36.0902 67.9118 35.9509 68.0107 35.836 68.1347C35.7212 68.2588 35.6333 68.4053 35.578 68.5651C35.5227 68.7248 35.5011 68.8943 35.5146 69.0628C35.5146 70.6922 35.5146 72.3215 35.5146 73.9509C35.5146 74.275 35.6433 74.5859 35.8725 74.815C36.1017 75.0442 36.4125 75.173 36.7366 75.173C37.0607 75.173 37.3716 75.0442 37.6007 74.815C37.8299 74.5859 37.9587 74.275 37.9587 73.9509C37.9587 73.1688 37.9587 72.3745 37.9587 71.5802C37.9587 70.7858 37.9587 69.9182 37.9587 69.1361C37.9833 68.9619 37.97 68.7844 37.9198 68.6158C37.8695 68.4471 37.7834 68.2914 37.6674 68.1591C37.5513 68.0268 37.4081 67.9212 37.2475 67.8493C37.0868 67.7775 36.9126 67.7412 36.7366 67.743Z" fill="#CBD5E1"/>
<path d="M50.3623 47.5063C51.8287 46.6997 53.2829 45.8443 54.7249 44.9889C54.8689 44.9081 54.995 44.799 55.0957 44.6681C55.1963 44.5372 55.2694 44.3873 55.3105 44.2275C55.3516 44.0676 55.3599 43.901 55.3349 43.7378C55.3099 43.5746 55.252 43.4182 55.1649 43.278C55.0831 43.135 54.9732 43.0101 54.8418 42.9107C54.7105 42.8112 54.5604 42.7394 54.4006 42.6995C54.2408 42.6595 54.0746 42.6523 53.9119 42.6782C53.7493 42.7041 53.5935 42.7627 53.454 42.8503C51.9998 43.6691 50.5578 44.5123 49.128 45.2944C48.9546 45.3907 48.8072 45.5279 48.6986 45.6939C48.59 45.86 48.5235 46.05 48.5048 46.2476C48.4602 46.4819 48.4852 46.7242 48.5768 46.9446C48.6683 47.1649 48.8223 47.3536 49.0198 47.4875C49.2173 47.6213 49.4497 47.6944 49.6882 47.6978C49.9268 47.7011 50.1611 47.6345 50.3623 47.5063Z" fill="#CBD5E1"/>
<path d="M23.0741 60.4109C21.6199 61.2174 20.1779 62.0606 18.7359 62.8549C18.4491 63.017 18.2383 63.2863 18.1501 63.6038C18.1064 63.7609 18.0941 63.9251 18.1139 64.0871C18.1337 64.249 18.1852 64.4054 18.2654 64.5474C18.3456 64.6895 18.4531 64.8143 18.5816 64.9148C18.71 65.0153 18.8571 65.0895 19.0142 65.1332C19.3316 65.2214 19.6711 65.18 19.9579 65.0179C21.4244 64.1869 22.8664 63.3437 24.3206 62.5005C24.4936 62.4093 24.6399 62.2746 24.7449 62.1095C24.8499 61.9445 24.9101 61.755 24.9194 61.5596C24.9378 61.3357 24.8941 61.1111 24.7932 60.9105C24.6922 60.7098 24.538 60.5408 24.3473 60.4221C24.1566 60.3034 23.9369 60.2396 23.7123 60.2376C23.4877 60.2356 23.2669 60.2955 23.0741 60.4109Z" fill="#CBD5E1"/>
<path d="M23.1476 44.6711C22.1089 44.0601 21.0702 43.4491 20.007 42.8625C19.8675 42.7749 19.7118 42.7163 19.5491 42.6904C19.3864 42.6645 19.2202 42.6717 19.0604 42.7117C18.9006 42.7516 18.7505 42.8235 18.6192 42.9229C18.4879 43.0223 18.378 43.1473 18.2962 43.2902C18.1292 43.5606 18.0741 43.8853 18.1426 44.1955C18.211 44.5058 18.3976 44.7772 18.6628 44.9522C20.1537 45.8443 21.6568 46.7241 23.1721 47.5551C23.3689 47.659 23.5904 47.7071 23.8126 47.6944C24.0348 47.6816 24.2493 47.6083 24.433 47.4826C24.6166 47.3568 24.7624 47.1832 24.8546 46.9807C24.9468 46.7781 24.982 46.5542 24.9562 46.3331C24.9388 46.1367 24.8742 45.9474 24.7678 45.7815C24.6614 45.6155 24.5164 45.4777 24.3452 45.3799L23.1476 44.6711Z" fill="#CBD5E1"/>
<path d="M29.551 65.8367C29.2755 65.7503 28.9783 65.7643 28.7121 65.8762C28.4459 65.988 28.2279 66.1905 28.0967 66.4477C27.278 67.8531 26.4714 69.2584 25.6527 70.6637C25.5724 70.8066 25.5211 70.9638 25.5016 71.1265C25.4822 71.2891 25.4949 71.454 25.5392 71.6118C25.5834 71.7695 25.6583 71.917 25.7596 72.0458C25.8608 72.1745 25.9864 72.2821 26.1293 72.3624C26.2721 72.4426 26.4293 72.4939 26.592 72.5134C26.7547 72.5329 26.9196 72.5201 27.0773 72.4759C27.235 72.4316 27.3825 72.3567 27.5113 72.2555C27.6401 72.1542 27.7477 72.0286 27.8279 71.8858C28.6344 70.5049 29.4288 69.124 30.272 67.7431C30.3531 67.5187 30.4225 67.2903 30.4797 67.0587C30.4699 66.7841 30.3753 66.5193 30.2091 66.3005C30.0428 66.0817 29.8129 65.9197 29.551 65.8367Z" fill="#CBD5E1"/>
<path d="M45.3642 66.4354C45.2924 66.2798 45.1887 66.1411 45.0599 66.0282C44.931 65.9153 44.7799 65.8308 44.6163 65.7801C44.4526 65.7294 44.2802 65.7137 44.1101 65.7339C43.94 65.7542 43.776 65.81 43.6289 65.8977C43.4772 65.979 43.3445 66.0914 43.2393 66.2276C43.1341 66.3638 43.0588 66.5206 43.0184 66.6879C42.9781 66.8552 42.9735 67.0291 43.0049 67.1983C43.0364 67.3675 43.1033 67.5281 43.2012 67.6696C43.5189 68.244 43.8488 68.8061 44.1666 69.3682C44.6676 70.2359 45.1686 71.1035 45.6819 71.959C45.8223 72.2025 46.0424 72.3902 46.3051 72.4904C46.5678 72.5905 46.857 72.5971 47.1239 72.5089C47.3814 72.4185 47.6066 72.2545 47.7717 72.0373C47.9369 71.8201 48.0345 71.5591 48.0526 71.2868C47.9758 71.0539 47.886 70.8255 47.7838 70.6025C46.9895 69.2216 46.1829 67.8163 45.3642 66.4354Z" fill="#CBD5E1"/>
</svg>
