<svg width="89" height="79" viewBox="0 0 89 79" fill="none" xmlns="http://www.w3.org/2000/svg">
<path d="M79.5723 52.877H62.4993C62.299 52.8771 62.1022 52.9351 61.9284 53.0452C61.7546 53.1554 61.6099 53.3138 61.5086 53.5049C61.4074 53.6959 61.3531 53.9129 61.3511 54.1344C61.3491 54.3558 61.3995 54.5739 61.4973 54.7671L71.1427 73.7134L68.7247 76.4453H21.5401L19.082 73.7281L28.754 54.7671C28.8562 54.5746 28.91 54.3554 28.91 54.1322C28.91 53.9089 28.8562 53.6897 28.754 53.4972C28.6489 53.3077 28.5016 53.1512 28.3262 53.0426C28.1508 52.934 27.9531 52.877 27.7521 52.877H10.679C10.3743 52.877 10.0821 53.0108 9.86665 53.2489C9.65119 53.4871 9.53015 53.8101 9.53015 54.1469C9.53015 54.4837 9.65119 54.8068 9.86665 55.0449C10.0821 55.2831 10.3743 55.4169 10.679 55.4169H25.7883L16.6239 73.3737C16.5102 73.6102 16.4671 73.8804 16.5007 74.1456C16.5343 74.4108 16.6429 74.6575 16.8109 74.8504L20.2309 78.6308C20.338 78.7486 20.4652 78.8418 20.605 78.9051C20.7449 78.9685 20.8946 79.0007 21.0458 79H69.1388C69.2899 79.0007 69.4397 78.9685 69.5795 78.9051C69.7194 78.8418 69.8465 78.7486 69.9537 78.6308L73.387 74.8504C73.5551 74.6575 73.6636 74.4108 73.6972 74.1456C73.7308 73.8804 73.6877 73.6102 73.574 73.3737L64.4764 55.4169H79.5723C79.877 55.4169 80.1692 55.2831 80.3847 55.0449C80.6002 54.8068 80.7212 54.4837 80.7212 54.1469C80.7212 53.8101 80.6002 53.4871 80.3847 53.2489C80.1692 53.0108 79.877 52.877 79.5723 52.877V52.877Z" fill="#CBD5E1"/>
<path d="M20.1907 58.4884C20.0895 58.2885 19.9423 58.1218 19.764 58.0051C19.5857 57.8884 19.3826 57.8259 19.1754 57.8239H10.679C10.3939 57.8578 10.1303 58.007 9.93872 58.2428C9.74715 58.4785 9.64117 58.7843 9.64117 59.1012C9.64117 59.4181 9.74715 59.7239 9.93872 59.9597C10.1303 60.1954 10.3939 60.3446 10.679 60.3786H17.0513L12.3355 68.4414C12.1639 68.7163 12.097 69.0548 12.1495 69.3837C12.2021 69.7126 12.3697 70.0054 12.6161 70.1987C12.8018 70.3359 13.0206 70.408 13.244 70.4054C13.4366 70.4039 13.6259 70.3507 13.7958 70.2504C13.9657 70.1501 14.111 70.0056 14.2192 69.8295L20.0972 59.7879C20.2163 59.6002 20.2877 59.3807 20.3042 59.1522C20.3206 58.9237 20.2814 58.6945 20.1907 58.4884V58.4884Z" fill="#CBD5E1"/>
<path d="M79.5723 57.8239H71.0759C70.8706 57.827 70.6698 57.8901 70.4939 58.0068C70.3179 58.1235 70.173 58.2897 70.0739 58.4884C69.9652 58.6838 69.9077 58.9087 69.9077 59.1381C69.9077 59.3675 69.9652 59.5925 70.0739 59.7879L75.952 69.8295C76.0563 70.0063 76.199 70.1516 76.3669 70.2521C76.5348 70.3527 76.7228 70.4054 76.9138 70.4054C77.1374 70.4099 77.3568 70.3377 77.5417 70.1987C77.6691 70.1087 77.7791 69.9918 77.8655 69.8547C77.952 69.7176 78.0131 69.563 78.0453 69.3997C78.0776 69.2365 78.0804 69.0678 78.0536 68.9034C78.0268 68.7389 77.9708 68.5819 77.889 68.4414L73.2 60.3786H79.5723C79.8574 60.3446 80.121 60.1954 80.3126 59.9597C80.5041 59.7239 80.6101 59.4181 80.6101 59.1012C80.6101 58.7843 80.5041 58.4785 80.3126 58.2428C80.121 58.007 79.8574 57.8578 79.5723 57.8239V57.8239Z" fill="#CBD5E1"/>
<path d="M89.9123 16.7861L75.9787 1.33967C75.876 1.21529 75.7497 1.11765 75.6088 1.05381C75.4678 0.989962 75.3159 0.961506 75.1638 0.970494H63.2207C63.0695 0.96976 62.9198 1.00199 62.7799 1.06534C62.6401 1.12869 62.5129 1.22191 62.4058 1.33967L48.4989 16.7861C48.2882 17.0282 48.1706 17.351 48.1706 17.6869C48.1706 18.0228 48.2882 18.3456 48.4989 18.5877L49.5142 19.7247V30.6229H40.6704V19.769L41.7391 18.5877C41.9529 18.3474 42.0727 18.0239 42.0727 17.6869C42.0727 17.3499 41.9529 17.0264 41.7391 16.7861L27.8189 1.33967C27.7117 1.22191 27.5845 1.12869 27.4447 1.06534C27.3048 1.00199 27.1551 0.96976 27.0039 0.970494H15.0608C14.9097 0.96976 14.76 1.00199 14.6201 1.06534C14.4803 1.12869 14.3531 1.22191 14.2459 1.33967L0.339032 16.7861C0.23159 16.9041 0.146325 17.0445 0.08814 17.1991C0.0299553 17.3536 0 17.5194 0 17.6869C0 17.8543 0.0299553 18.0201 0.08814 18.1747C0.146325 18.3293 0.23159 18.4696 0.339032 18.5877L3.94601 22.5748C4.12462 22.7858 4.36702 22.9172 4.62733 22.944V37.7111C4.62667 37.8781 4.65582 38.0437 4.71313 38.1983C4.77044 38.3528 4.85478 38.4934 4.96131 38.6119L7.98048 41.9493C8.08611 42.0703 8.21268 42.1667 8.35267 42.2327C8.49266 42.2986 8.64321 42.3328 8.79539 42.3332H33.3228C33.6297 42.3291 33.9226 42.1911 34.1377 41.9493L37.1569 38.6119C37.2133 38.5444 37.2625 38.4701 37.3039 38.3904C37.3039 38.3904 37.3039 38.3904 37.3039 38.3904L39.6818 33.3105H50.3691L52.7738 38.3904C52.8606 38.5589 52.979 38.7049 53.1211 38.8186L56.0468 42.0379C56.1515 42.1603 56.2778 42.2576 56.4181 42.3237C56.5583 42.3898 56.7093 42.4232 56.8617 42.4218H81.4827C81.6351 42.4232 81.7861 42.3898 81.9263 42.3237C82.0665 42.2576 82.1929 42.1603 82.2976 42.0379L85.3167 38.7005C85.4233 38.582 85.5076 38.4414 85.5649 38.2869C85.6222 38.1323 85.6514 37.9667 85.6507 37.7997V23.0326C85.8977 22.9951 86.1272 22.8708 86.3053 22.6782L89.9123 18.691C90.0309 18.5694 90.1254 18.422 90.1901 18.2581C90.2548 18.0942 90.2882 17.9174 90.2882 17.7386C90.2882 17.5598 90.2548 17.3829 90.1901 17.219C90.1254 17.0551 90.0309 16.9077 89.9123 16.7861ZM38.3726 30.549L37.4909 32.4245V22.9292C37.7346 22.8939 37.9604 22.7691 38.1321 22.5748L38.3726 22.309V30.549ZM2.78376 17.6869L15.5418 3.53997H26.523L39.3345 17.6869L37.3439 19.8724L25.7081 7.03978C25.6034 6.91731 25.4771 6.82 25.3368 6.75394C25.1966 6.68788 25.0456 6.65449 24.8932 6.65584H17.225C17.0726 6.65449 16.9216 6.68788 16.7814 6.75394C16.6412 6.82 16.5148 6.91731 16.4101 7.03978L4.96131 19.6509L4.76092 19.8872L2.78376 17.6869ZM25.9753 39.7342H16.2231V31.7452L18.5743 29.1462H23.5573L25.9753 31.7304V39.7342ZM32.9087 39.7342H28.2063V31.2136C28.2069 31.0465 28.1778 30.881 28.1205 30.7264C28.0632 30.5718 27.9788 30.4313 27.8723 30.3128L24.8531 26.9606C24.7459 26.8429 24.6188 26.7496 24.4789 26.6863C24.3391 26.6229 24.1893 26.5907 24.0382 26.5914H18.0934C17.9423 26.5907 17.7925 26.6229 17.6527 26.6863C17.5128 26.7496 17.3857 26.8429 17.2785 26.9606L14.2593 30.3128C14.1528 30.4313 14.0684 30.5718 14.0111 30.7264C13.9538 30.881 13.9246 31.0465 13.9253 31.2136V39.7342H9.27632L6.93847 37.1499V21.0833L17.706 9.26962H24.3855L35.1664 21.1719V37.1352L32.9087 39.7342ZM51.8253 22.2647L52.1058 22.5748C52.2879 22.7806 52.5285 22.9109 52.7872 22.944V32.5574L51.8253 30.549V22.2647ZM74.0683 39.7342H64.3829V31.7452L66.7341 29.1462H71.7171L74.0683 31.7304V39.7342ZM81.0017 39.7342H76.3661V31.2136C76.3668 31.0465 76.3376 30.881 76.2803 30.7264C76.223 30.5718 76.1386 30.4313 76.0321 30.3128L73.0129 26.9606C72.9058 26.8429 72.7786 26.7496 72.6388 26.6863C72.4989 26.6229 72.3492 26.5907 72.198 26.5914H66.2532C65.9491 26.5961 65.6579 26.7281 65.4383 26.9606L62.4191 30.3128C62.3126 30.4313 62.2283 30.5718 62.1709 30.7264C62.1136 30.881 62.0845 31.0465 62.0851 31.2136V39.7342H57.4361L55.0983 37.1499V21.0833L65.8658 9.26962H72.5454L83.4197 21.1128V37.1352L81.0017 39.7342ZM85.4904 19.8724L73.8679 7.03978C73.7633 6.91731 73.6369 6.82 73.4967 6.75394C73.3565 6.68788 73.2054 6.65449 73.053 6.65584H65.3849C65.2324 6.65449 65.0814 6.68788 64.9412 6.75394C64.801 6.82 64.6746 6.91731 64.5699 7.03978L53.1345 19.6509L52.9207 19.8872L51.5047 18.3219L50.9837 17.7459L63.7417 3.59904H74.7229L87.4275 17.6869L85.4904 19.8724Z" fill="#CBD5E1"/>
<path d="M74.9233 15.2946H63.5413C63.2366 15.2946 62.9444 15.4284 62.7289 15.6665C62.5135 15.9047 62.3924 16.2277 62.3924 16.5645V21.6887C62.3906 21.8567 62.4191 22.0235 62.476 22.1793C62.5329 22.335 62.6173 22.4768 62.7241 22.5963C62.831 22.7158 62.9583 22.8106 63.0985 22.8754C63.2388 22.9401 63.3893 22.9735 63.5413 22.9735H74.9233C75.0753 22.9735 75.2258 22.9401 75.3661 22.8754C75.5064 22.8106 75.6336 22.7158 75.7405 22.5963C75.8473 22.4768 75.9317 22.335 75.9886 22.1793C76.0456 22.0235 76.074 21.8567 76.0722 21.6887V16.5645C76.0722 16.2277 75.9512 15.9047 75.7357 15.6665C75.5202 15.4284 75.228 15.2946 74.9233 15.2946V15.2946ZM73.7744 20.404H64.7169V17.8345H73.8011L73.7744 20.404Z" fill="#CBD5E1"/>
<path d="M26.7635 15.2946H15.3815C15.0767 15.2946 14.7845 15.4284 14.5691 15.6665C14.3536 15.9047 14.2326 16.2277 14.2326 16.5645V21.6887C14.2308 21.8567 14.2592 22.0235 14.3162 22.1793C14.3731 22.335 14.4574 22.4768 14.5643 22.5963C14.6712 22.7158 14.7984 22.8106 14.9387 22.8754C15.079 22.9401 15.2294 22.9735 15.3815 22.9735H26.7635C27.0694 22.9696 27.3616 22.8325 27.5767 22.592C27.7918 22.3515 27.9124 22.0269 27.9124 21.6887V16.5645C27.9089 16.2289 27.7867 15.9081 27.572 15.6708C27.3573 15.4334 27.0671 15.2984 26.7635 15.2946V15.2946ZM25.6012 20.404H16.5303V17.8345H25.6012V20.404Z" fill="#CBD5E1"/>
<path d="M46.2411 66.1822C46.2411 65.2666 45.7735 64.7054 45.0922 64.7054C44.4109 64.7054 43.8899 65.2814 43.8899 66.1822C43.8899 68.2052 43.8899 70.2431 43.8899 72.2662C43.8899 73.1818 44.3575 73.7429 45.0388 73.7429C45.7201 73.7429 46.2277 73.167 46.2411 72.2662C46.2545 71.3654 46.2411 70.2431 46.2411 69.2242C46.2411 68.2053 46.2678 67.2011 46.2411 66.1822Z" fill="#CBD5E1"/>
<path d="M46.2412 54.3537C46.2412 54.0091 46.1173 53.6785 45.8969 53.4348C45.6764 53.1911 45.3774 53.0542 45.0656 53.0542C44.7538 53.0542 44.4548 53.1911 44.2343 53.4348C44.0138 53.6785 43.89 54.0091 43.89 54.3537C43.89 55.1659 43.89 55.9929 43.89 56.805C43.89 57.6172 43.89 58.5328 43.89 59.4041C43.8828 59.5764 43.9071 59.7487 43.9614 59.9104C44.0158 60.0722 44.099 60.2202 44.2063 60.3456C44.3135 60.471 44.4425 60.5713 44.5855 60.6404C44.7286 60.7095 44.8828 60.7461 45.0389 60.7479C45.2012 60.7567 45.3633 60.7273 45.5146 60.6618C45.6658 60.5962 45.8028 60.4959 45.9165 60.3675C46.0301 60.2391 46.1178 60.0855 46.1738 59.9169C46.2297 59.7483 46.2527 59.5685 46.2412 59.3893C46.2679 57.7206 46.2679 56.0372 46.2412 54.3537Z" fill="#CBD5E1"/>
<path d="M43.8899 48.949C43.8766 49.128 43.8977 49.3082 43.952 49.4775C44.0063 49.6468 44.0925 49.8015 44.2049 49.9313C44.3173 50.0611 44.4533 50.1631 44.6039 50.2305C44.7546 50.2979 44.9165 50.3292 45.0789 50.3223C45.7736 50.3223 46.201 49.8054 46.2411 48.8456C46.2411 48.2401 46.2411 47.6199 46.2411 47.0145C46.2411 46.409 46.2411 45.8479 46.2411 45.2572C46.2411 45.2572 46.2411 45.1686 46.2411 45.1095C46.2465 44.9383 46.2208 44.7677 46.1656 44.6077C46.1105 44.4476 46.0269 44.3014 45.9199 44.1775C45.8128 44.0537 45.6845 43.9548 45.5423 43.8866C45.4002 43.8184 45.2472 43.7823 45.0922 43.7805C44.9299 43.7717 44.7678 43.801 44.6165 43.8666C44.4652 43.9321 44.3283 44.0324 44.2146 44.1608C44.101 44.2892 44.0133 44.4428 43.9573 44.6114C43.9014 44.78 43.8784 44.9599 43.8899 45.139C43.8632 46.4533 43.8632 47.7085 43.8899 48.949Z" fill="#CBD5E1"/>
<path d="M69.927 49.0228C70.0779 49.0134 70.2257 48.9711 70.3619 48.8984C70.498 48.8257 70.6199 48.724 70.7204 48.5992C70.8209 48.4744 70.8982 48.3288 70.9477 48.1709C70.9972 48.013 71.0181 47.8458 71.009 47.679C70.9952 47.3434 70.8629 47.0272 70.6407 46.7981C70.4185 46.569 70.1239 46.4452 69.8201 46.4533C69.2456 46.4533 68.6712 46.4533 68.0967 46.4533C67.5223 46.4533 66.8944 46.4533 66.2933 46.4533C66.1406 46.4465 65.9883 46.473 65.8449 46.5313C65.7016 46.5896 65.57 46.6786 65.4577 46.7931C65.231 47.0243 65.0967 47.3456 65.0843 47.6864C65.0719 48.0271 65.1824 48.3593 65.3916 48.61C65.6008 48.8606 65.8915 49.0091 66.1997 49.0228C67.4466 49.0819 68.689 49.0819 69.927 49.0228Z" fill="#CBD5E1"/>
<path d="M23.9313 49.0227C24.0829 49.0152 24.2316 48.9743 24.3686 48.9023C24.5056 48.8302 24.6281 48.7286 24.729 48.6033C24.8299 48.478 24.907 48.3317 24.9559 48.1729C25.0047 48.0142 25.0243 47.8462 25.0134 47.6789C24.9996 47.3459 24.8692 47.032 24.6499 46.8033C24.4305 46.5746 24.1393 46.4491 23.8378 46.4532C23.2634 46.4532 22.6889 46.4532 22.1145 46.4532C21.54 46.4532 20.9122 46.4532 20.311 46.4532C20.0081 46.4489 19.7154 46.5739 19.4939 46.8023C19.2724 47.0306 19.1392 47.3446 19.122 47.6789C19.1073 48.0149 19.2124 48.3439 19.4148 48.5951C19.6171 48.8464 19.9005 48.9999 20.2041 49.0227C21.451 49.0818 22.6934 49.0818 23.9313 49.0227Z" fill="#CBD5E1"/>
<path d="M61.6576 49.0227C61.8085 49.0151 61.9566 48.9747 62.0934 48.9038C62.2302 48.8329 62.353 48.7328 62.4547 48.6094C62.5565 48.4859 62.6352 48.3415 62.6864 48.1844C62.7376 48.0272 62.7602 47.8605 62.7531 47.6937C62.7426 47.3581 62.6137 47.0404 62.394 46.8086C62.1743 46.5767 61.8812 46.4492 61.5775 46.4533C61.003 46.4533 60.4286 46.4533 59.8541 46.4533C59.2797 46.4533 58.6518 46.4533 58.0506 46.4533C57.7468 46.4452 57.4523 46.569 57.23 46.7981C57.0078 47.0272 56.8755 47.3434 56.8617 47.6789C56.8508 47.845 56.8699 48.0118 56.9179 48.1697C56.966 48.3275 57.0419 48.4732 57.1414 48.5983C57.2409 48.7233 57.3618 48.8253 57.4973 48.8981C57.6328 48.971 57.78 49.0134 57.9304 49.0227C59.1772 49.0818 60.4197 49.0818 61.6576 49.0227Z" fill="#CBD5E1"/>
<path d="M32.1739 49.0228C32.3255 49.0171 32.4744 48.9781 32.612 48.9078C32.7497 48.8375 32.8732 48.7375 32.9753 48.6136C33.0774 48.4898 33.156 48.3446 33.2065 48.1866C33.257 48.0286 33.2784 47.861 33.2694 47.6937C33.2556 47.3594 33.1257 47.0439 32.9067 46.8128C32.6877 46.5817 32.3965 46.4529 32.0938 46.4533C31.5193 46.4533 30.9449 46.4533 30.3705 46.4533C29.796 46.4533 29.1681 46.4533 28.5803 46.4533C28.4277 46.4436 28.2748 46.4672 28.1305 46.5228C27.9861 46.5784 27.8531 46.6649 27.7389 46.7774C27.6248 46.8898 27.5318 47.026 27.4653 47.1782C27.3988 47.3303 27.3601 47.4955 27.3513 47.6642C27.3425 47.8329 27.3639 48.0019 27.4142 48.1615C27.4645 48.321 27.5427 48.4681 27.6445 48.5943C27.7462 48.7204 27.8694 48.8232 28.007 48.8967C28.1447 48.9702 28.2941 49.0131 28.4467 49.0228C29.6936 49.0818 30.936 49.0818 32.1739 49.0228Z" fill="#CBD5E1"/>
<path d="M13.8184 49.0522C14.3928 49.0522 14.9673 49.0522 15.5417 49.0522C15.7028 49.0608 15.8638 49.0318 16.014 48.9671C16.1643 48.9024 16.3006 48.8035 16.414 48.6767C16.5275 48.55 16.6155 48.3983 16.6723 48.2314C16.7292 48.0646 16.7536 47.8864 16.744 47.7084C16.7448 47.5351 16.7126 47.3635 16.6496 47.2047C16.5867 47.046 16.4943 46.9036 16.3785 46.7867C16.2627 46.6698 16.1261 46.5811 15.9773 46.5262C15.8286 46.4713 15.6711 46.4514 15.515 46.468C14.3928 46.468 13.2573 46.468 12.1351 46.468C11.9791 46.4494 11.8213 46.4672 11.6719 46.5202C11.5225 46.5732 11.3848 46.6603 11.2677 46.7758C11.1506 46.8913 11.0567 47.0327 10.9921 47.1908C10.9276 47.3489 10.8937 47.5202 10.8927 47.6936C10.8812 47.8728 10.9042 48.0526 10.9602 48.2212C11.0161 48.3899 11.1038 48.5434 11.2175 48.6718C11.3311 48.8002 11.4681 48.9005 11.6193 48.9661C11.7706 49.0317 11.9328 49.061 12.0951 49.0522C12.6161 49.0817 13.2439 49.0522 13.8184 49.0522Z" fill="#CBD5E1"/>
<path d="M78.1562 49.0228C78.3078 49.0194 78.4571 48.9816 78.5949 48.9119C78.7328 48.8421 78.8562 48.7419 78.9576 48.6173C79.0591 48.4928 79.1363 48.3465 79.1846 48.1877C79.2328 48.0288 79.2511 47.8607 79.2383 47.6938C79.2384 47.5284 79.2085 47.3646 79.1504 47.2121C79.0923 47.0597 79.0073 46.9216 78.9002 46.806C78.7932 46.6905 78.6663 46.5997 78.5271 46.5391C78.3878 46.4786 78.239 46.4494 78.0894 46.4533C77.515 46.4533 76.9405 46.4533 76.3661 46.4533C75.7916 46.4533 75.1638 46.4533 74.5626 46.4533C74.413 46.4454 74.2635 46.4707 74.1229 46.5276C73.9823 46.5845 73.8534 46.672 73.7439 46.7848C73.6343 46.8977 73.5463 47.0336 73.485 47.1846C73.4237 47.3357 73.3904 47.4987 73.387 47.6642C73.3699 47.8372 73.3863 48.0123 73.4352 48.1777C73.4841 48.3432 73.5642 48.4952 73.6704 48.6238C73.7766 48.7523 73.9063 48.8544 74.0509 48.9232C74.1955 48.992 74.3517 49.0259 74.5092 49.0228C75.7293 49.0819 76.945 49.0819 78.1562 49.0228Z" fill="#CBD5E1"/>
<path d="M46.2278 37.2385C46.2139 36.9029 46.0817 36.5867 45.8595 36.3576C45.6372 36.1285 45.3426 36.0047 45.0388 36.0128C44.8932 36.0109 44.7487 36.0406 44.6135 36.1004C44.4783 36.1602 44.3551 36.2489 44.2509 36.3613C44.1467 36.4738 44.0635 36.6078 44.0062 36.7558C43.9488 36.9038 43.9184 37.0628 43.9167 37.2237C43.8699 38.1583 43.8699 39.0949 43.9167 40.0295C43.9167 40.3663 44.0377 40.6893 44.2532 40.9275C44.4686 41.1656 44.7609 41.2994 45.0656 41.2994C45.3703 41.2994 45.6625 41.1656 45.8779 40.9275C46.0934 40.6893 46.2144 40.3663 46.2144 40.0295C46.2423 39.5377 46.2423 39.0445 46.2144 38.5528C46.2278 38.1393 46.2679 37.6815 46.2278 37.2385Z" fill="#CBD5E1"/>
</svg>
