<svg width="62" height="70" viewBox="0 0 62 70" fill="none" xmlns="http://www.w3.org/2000/svg">
<path d="M41.8765 25.5624C41.6444 25.4934 41.4026 25.4632 41.1606 25.4729H8.99862C8.77512 25.4618 8.55119 25.4833 8.3339 25.5369C8.11538 25.6044 7.92672 25.745 7.79953 25.9351C7.67235 26.1252 7.61439 26.3532 7.63537 26.5809C7.65635 26.8087 7.75498 27.0223 7.91475 27.186C8.07451 27.3496 8.28568 27.4534 8.51286 27.4799C8.71293 27.4925 8.9136 27.4925 9.11367 27.4799H41.0712C41.2923 27.4991 41.5147 27.4991 41.7359 27.4799C41.9645 27.4673 42.1803 27.37 42.341 27.2069C42.5018 27.0438 42.5959 26.8267 42.6051 26.5978C42.6425 26.3643 42.5872 26.1255 42.4512 25.9321C42.3151 25.7387 42.1089 25.6061 41.8765 25.5624V25.5624Z" fill="#CBD5E1"/>
<path d="M8.5768 21.2802C8.77685 21.2932 8.97753 21.2932 9.17759 21.2802H40.9945C41.1945 21.2932 41.3952 21.2932 41.5953 21.2802C41.8575 21.2702 42.1052 21.1573 42.2847 20.9658C42.4641 20.7744 42.5609 20.5199 42.554 20.2576C42.554 20.1289 42.5285 20.0016 42.4788 19.8828C42.4292 19.7641 42.3565 19.6565 42.2649 19.5661C42.1734 19.4757 42.0648 19.4044 41.9454 19.3563C41.8261 19.3083 41.6984 19.2844 41.5697 19.2861H8.60236C8.34326 19.2892 8.09526 19.3918 7.90968 19.5726C7.72409 19.7534 7.61511 19.9987 7.60529 20.2576C7.60802 20.5193 7.70973 20.7702 7.88997 20.9599C8.07021 21.1497 8.3156 21.2641 8.5768 21.2802V21.2802Z" fill="#CBD5E1"/>
<path d="M8.38502 14.2239C8.60586 14.2492 8.82888 14.2492 9.04973 14.2239H24.6833C24.8832 14.2425 25.0843 14.2425 25.2841 14.2239C25.5104 14.1789 25.714 14.0568 25.8603 13.8785C26.0066 13.7002 26.0866 13.4767 26.0866 13.246C26.0866 13.0153 26.0066 12.7918 25.8603 12.6135C25.714 12.4352 25.5104 12.3131 25.2841 12.2681C25.0372 12.2553 24.7897 12.2553 24.5427 12.2681H9.20313C8.95636 12.249 8.70848 12.249 8.46172 12.2681C8.23625 12.3031 8.02995 12.4153 7.87809 12.5856C7.72623 12.7559 7.63825 12.9737 7.62919 13.2017C7.62014 13.4296 7.69056 13.6537 7.82843 13.8355C7.96629 14.0173 8.16304 14.1456 8.38502 14.1983V14.2239Z" fill="#CBD5E1"/>
<path d="M61.8563 52.2022L52.5886 36.5686V13.2652C52.5948 13.2015 52.5948 13.1372 52.5886 13.0735C52.5946 13.0354 52.5946 12.9965 52.5886 12.9584C52.5886 12.9584 52.5886 12.9584 52.5886 12.8817C52.5949 12.8479 52.5949 12.8133 52.5886 12.7795C52.5886 12.7795 52.5886 12.7795 52.5886 12.7795L52.4863 12.6516L40.7004 0.814581C40.6094 0.681346 40.4874 0.572191 40.3449 0.496489C40.2024 0.420787 40.0437 0.380799 39.8823 0.379959H4.07714C3.94608 0.378303 3.81607 0.40354 3.69514 0.454109C3.57421 0.504678 3.46494 0.579506 3.37407 0.67397L0.433985 3.61406C0.340122 3.70538 0.265695 3.81474 0.21517 3.93556C0.164645 4.05638 0.139067 4.18617 0.139977 4.31712V60.3833C0.139067 60.5143 0.164645 60.6441 0.21517 60.7649C0.265695 60.8857 0.340122 60.9951 0.433985 61.0864L3.36129 64.0265C3.55242 64.2046 3.80315 64.3049 4.06436 64.3077H21.8455C21.9594 64.7761 22.1708 65.2152 22.466 65.5962C22.7611 65.9773 23.1334 66.2918 23.5584 66.5192C24.0038 66.7475 24.492 66.8802 24.9917 66.9089C25.4914 66.9375 25.9916 66.8613 26.4602 66.6854C26.6928 67.2293 27.0589 67.7057 27.5246 68.0705C27.9902 68.4352 28.5405 68.6766 29.1242 68.7722C29.708 68.8678 30.3065 68.8145 30.8642 68.6173C31.4219 68.4201 31.9208 68.0854 32.3148 67.6441L34.4751 68.9224C34.943 69.2583 35.4888 69.4694 36.061 69.5357C36.6332 69.602 37.2128 69.5212 37.7451 69.3011C38.2774 69.0811 38.7448 68.7289 39.1031 68.2779C39.4614 67.8269 39.6988 67.292 39.7928 66.7237C39.7928 66.7237 39.7928 66.7237 39.8823 66.647C40.3887 66.9132 40.9527 67.0513 41.5248 67.0492C42.0969 67.0471 42.6598 66.9049 43.1643 66.635C43.6687 66.3651 44.0994 65.9758 44.4186 65.501C44.7379 65.0262 44.9359 64.4805 44.9955 63.9114C45.4618 64.0153 45.9446 64.0211 46.4132 63.9287C46.8819 63.8363 47.3263 63.6476 47.7183 63.3746C48.5039 62.808 49.0326 61.9529 49.1883 60.9969C49.8899 61.2405 50.6515 61.2504 51.3593 61.0252C52.067 60.7999 52.6827 60.3516 53.1144 59.7472C53.5461 59.1429 53.7705 58.415 53.754 57.6725C53.7376 56.93 53.4812 56.2127 53.0232 55.6281C53.596 55.1782 54.2908 54.9109 55.0174 54.8611L57.574 55.5002C57.6587 55.5126 57.7449 55.5126 57.8296 55.5002C57.9992 55.4957 58.1655 55.4519 58.3154 55.3724L61.4856 53.5828C61.6018 53.5178 61.7037 53.4299 61.785 53.3245C61.8663 53.219 61.9253 53.0981 61.9585 52.9692C61.9982 52.8416 62.0096 52.7069 61.9919 52.5744C61.9743 52.442 61.928 52.315 61.8563 52.2022V52.2022ZM40.6876 3.7291L49.2139 12.3065H44.2541L40.6876 8.54829V3.7291ZM2.12134 59.9743V4.6367L4.4862 2.27184H38.7063V8.919C38.7038 9.17503 38.7999 9.42219 38.9747 9.60928L43.1036 13.9555C43.1947 14.055 43.3052 14.1347 43.4284 14.1896C43.5515 14.2446 43.6846 14.2737 43.8195 14.2751H50.6072V33.9098C50.3807 33.86 50.1437 33.8965 49.9425 34.012L46.7468 35.8144C46.6287 35.8802 46.5257 35.9699 46.4442 36.0777C46.3628 36.1856 46.3047 36.3092 46.2738 36.4408L45.2384 40.4674C45.1871 40.6514 45.1871 40.8459 45.2384 41.0299C44.6315 41.0451 44.0245 41.0108 43.4232 40.9276C42.8142 40.7778 42.2228 40.5635 41.6591 40.2885C40.3844 39.6546 38.9134 39.54 37.5558 39.9689C36.7505 40.2246 35.9068 40.3652 35.0887 40.608C34.8802 40.6868 34.6563 40.7162 34.4345 40.6941C34.2128 40.6719 33.9992 40.5987 33.8104 40.4802C33.0706 40.0076 32.2235 39.7293 31.3476 39.6712C30.4716 39.6131 29.5952 39.7771 28.7995 40.1479C28.2114 40.4035 27.5979 40.6336 26.9843 40.8509C25.8462 41.0259 24.6819 40.8798 23.6223 40.4291L22.6125 36.5047C22.5502 36.256 22.3946 36.0408 22.1779 35.9039L19.0588 33.9737C18.9481 33.9024 18.8241 33.8544 18.6943 33.8326C18.5645 33.8107 18.4316 33.8155 18.3037 33.8466C18.1757 33.8777 18.0555 33.9344 17.9502 34.0134C17.8449 34.0924 17.7567 34.1919 17.691 34.306L7.06836 52.1383C6.93619 52.3608 6.89695 52.6264 6.95916 52.8776C7.02136 53.1288 7.17999 53.3454 7.40072 53.4805L10.5198 55.4235C10.6795 55.5145 10.86 55.5629 11.0439 55.5641C11.1243 55.5766 11.2063 55.5766 11.2867 55.5641L15.275 54.5415C15.34 54.5976 15.42 54.6331 15.5051 54.6438C12.3989 57.8779 14.6487 61.7383 17.9083 61.406C18.0188 61.7299 18.1512 62.046 18.3046 62.3519H4.47341L2.12134 59.9743ZM46.2099 42.6533L52.6014 53.4805C52.1948 53.7377 51.7672 53.9601 51.3231 54.1452C51.0597 54.1878 50.79 54.1284 50.5689 53.9791C46.4783 51.5759 42.3963 49.1641 38.3228 46.7439L37.5686 46.3093C36.6226 45.7724 35.9451 46.1175 35.8557 47.1913C35.8587 47.6084 35.756 48.0195 35.557 48.3861C35.358 48.7527 35.0694 49.0629 34.718 49.2877C34.2737 49.4918 33.8116 49.6544 33.3374 49.7735C33.3374 47.8944 33.2607 46.1814 33.3374 44.4685C33.3944 44.0271 33.5896 43.6151 33.8949 43.2913C34.2003 42.9676 34.6003 42.7488 35.0376 42.6661C36.2136 42.3337 37.4024 42.0142 38.604 41.7841C39.112 41.7343 39.6248 41.7865 40.1124 41.9375C40.5216 42.0551 40.9195 42.2091 41.3012 42.3977C42.0621 42.7621 42.8875 42.9723 43.73 43.0162C44.5725 43.0601 45.4153 42.9368 46.2099 42.6533V42.6533ZM22.3057 61.6105C22.0691 61.8329 21.7911 62.0066 21.4876 62.1218C20.2093 62.1218 19.5446 60.9714 20.107 60.1021C21.053 58.6576 22.0756 57.2771 23.111 55.9093C23.2143 55.7674 23.3444 55.6473 23.4941 55.5558C23.6438 55.4642 23.81 55.4031 23.9833 55.3758C24.1566 55.3485 24.3336 55.3556 24.5041 55.3967C24.6747 55.4378 24.8355 55.512 24.9773 55.6153C25.1192 55.7185 25.2393 55.8487 25.3309 55.9983C25.4224 56.148 25.4836 56.3142 25.5109 56.4875C25.5382 56.6608 25.5311 56.8378 25.49 57.0084C25.4489 57.179 25.3746 57.3398 25.2713 57.4816C24.3254 58.8877 23.3283 60.2555 22.3057 61.6105ZM19.9664 56.6763C19.4705 57.466 18.9284 58.2258 18.343 58.9516C18.1394 59.1263 17.8991 59.253 17.6399 59.3223C17.386 59.3648 17.1252 59.334 16.8881 59.2335C16.6511 59.1331 16.4475 58.9672 16.3013 58.7553C16.1552 58.5434 16.0724 58.2942 16.0627 58.0369C16.0529 57.7797 16.1167 57.525 16.2466 57.3026C16.7012 56.5663 17.2051 55.8617 17.7549 55.1934C17.9633 54.9355 18.2639 54.7686 18.593 54.728C18.9222 54.6875 19.2542 54.7764 19.519 54.9761C19.7969 55.1485 19.9981 55.4208 20.0814 55.7371C20.1646 56.0533 20.1234 56.3894 19.9664 56.6763ZM14.4186 52.688L11.21 53.5061L9.26703 52.3045L18.8415 36.1851L20.7462 37.3739L21.5771 40.6208L14.4186 52.688ZM26.3451 64.1927C26.2486 64.3567 26.1195 64.4992 25.9657 64.6114C25.812 64.7236 25.6369 64.8031 25.4512 64.845C25.2656 64.8869 25.0733 64.8904 24.8863 64.8551C24.6992 64.8199 24.5214 64.7467 24.3638 64.6401C24.1485 64.4928 23.9834 64.2831 23.8908 64.0393C24.0549 63.8732 24.1581 63.6566 24.1836 63.4246C24.2091 63.1926 24.1555 62.9587 24.0314 62.761L24.1081 62.6204C25.0029 61.3421 25.9233 60.0638 26.8437 58.7855C27.0012 58.5226 27.2479 58.3251 27.5388 58.2289C27.8298 58.1327 28.1456 58.1442 28.4287 58.2614C28.7143 58.365 28.9591 58.5575 29.1271 58.8106C29.2951 59.0637 29.3774 59.3641 29.3619 59.6675C29.2658 59.9415 29.146 60.2067 29.004 60.46C28.0836 61.7383 27.2399 62.9655 26.3451 64.1927ZM30.18 66.7493C29.9199 66.8635 29.6291 66.8878 29.3537 66.8183C29.0782 66.7489 28.8337 66.5896 28.6588 66.3658C28.4588 66.1667 28.3302 65.907 28.2932 65.6272C28.2562 65.3474 28.3129 65.0633 28.4543 64.819C28.7924 64.2439 29.1817 63.7006 29.6176 63.1956C29.7969 63.0086 30.0261 62.8769 30.278 62.8162C30.5299 62.7554 30.7939 62.7682 31.0388 62.853C31.2837 62.9377 31.4991 63.0909 31.6595 63.2944C31.82 63.4978 31.9187 63.7431 31.9441 64.0009C31.6934 65.0901 31.0463 66.047 30.1289 66.6854L30.18 66.7493ZM49.9809 59.0795C49.7325 58.9808 49.493 58.8611 49.265 58.7215L41.2373 53.9663C41.0839 53.8768 40.9433 53.7745 40.7771 53.6978C40.6634 53.6257 40.5365 53.5771 40.4037 53.5548C40.271 53.5325 40.1351 53.537 40.0041 53.5679C39.8731 53.5989 39.7496 53.6557 39.6408 53.7351C39.5321 53.8145 39.4404 53.9148 39.371 54.0302C39.2989 54.1447 39.2512 54.2728 39.2309 54.4066C39.2105 54.5404 39.218 54.6769 39.2528 54.8076C39.2876 54.9384 39.3489 55.0606 39.4331 55.1665C39.5172 55.2725 39.6222 55.36 39.7417 55.4235C40.1891 55.7175 40.6621 55.9732 41.1223 56.2416L45.9159 59.0795C47.1047 59.7953 47.4371 60.4984 46.9513 61.3037C46.4656 62.109 45.673 62.1218 44.4842 61.4188L38.5912 57.9418C38.3228 57.7884 37.9265 57.5839 37.6709 57.6733C37.3115 57.8036 37.0176 58.0699 36.8527 58.4148C36.6482 58.9005 36.9422 59.3096 37.4024 59.578L41.6719 62.1346L42.081 62.3647C42.2604 62.4447 42.4213 62.5611 42.5534 62.7065C42.6855 62.8519 42.786 63.0231 42.8485 63.2094C42.911 63.3957 42.9341 63.5929 42.9164 63.7885C42.8987 63.9842 42.8406 64.174 42.7457 64.3461C42.6468 64.517 42.5124 64.6647 42.3516 64.7792C42.1907 64.8938 42.0072 64.9725 41.8133 65.0101C41.6195 65.0476 41.4198 65.0432 41.2278 64.997C41.0358 64.9508 40.856 64.864 40.7004 64.7423L36.661 62.3519C36.4919 62.2443 36.3169 62.1461 36.1369 62.0579C36.0258 61.9991 35.9039 61.9633 35.7787 61.9528C35.6534 61.9422 35.5273 61.9571 35.4079 61.9965C35.2885 62.0359 35.1783 62.099 35.0839 62.182C34.9895 62.2651 34.9129 62.3663 34.8586 62.4797C34.793 62.5827 34.7486 62.6977 34.7279 62.818C34.7072 62.9383 34.7106 63.0615 34.7379 63.1805C34.7653 63.2994 34.8161 63.4118 34.8872 63.5109C34.9584 63.6101 35.0486 63.6941 35.1526 63.758C35.7406 64.1543 36.4309 64.4867 36.9806 64.8574C37.1574 64.9371 37.3154 65.0532 37.4443 65.1981C37.5733 65.3429 37.6702 65.5134 37.7289 65.6982C37.7876 65.8831 37.8066 66.0782 37.7849 66.2709C37.7631 66.4636 37.701 66.6496 37.6025 66.8167C37.5041 66.9838 37.3715 67.1283 37.2135 67.2407C37.0555 67.3532 36.8755 67.4311 36.6854 67.4693C36.4953 67.5076 36.2992 67.5054 36.11 67.4628C35.9208 67.4202 35.7426 67.3382 35.5872 67.2222L33.5292 65.9439C33.8074 65.466 33.9728 64.9307 34.0127 64.3791C34.0526 63.8275 33.9659 63.274 33.7593 62.761C33.5372 62.2471 33.1949 61.7942 32.761 61.4404C32.3272 61.0867 31.8146 60.8425 31.2666 60.7285C31.4431 60.1677 31.4783 59.5721 31.369 58.9944C31.2598 58.4168 31.0094 57.8752 30.6402 57.4177C30.2814 56.956 29.8089 56.5954 29.2688 56.3713C28.7288 56.1472 28.1397 56.0673 27.5595 56.1394C27.4302 55.5264 27.1388 54.9593 26.7158 54.4972C26.2927 54.0351 25.7535 53.6949 25.1542 53.5121C24.555 53.3294 23.9177 53.3107 23.3087 53.458C22.6998 53.6053 22.1415 53.9133 21.6921 54.3498C21.5898 54.2219 21.4748 54.1069 21.3598 53.9791C20.8998 53.4092 20.2681 53.003 19.5587 52.8211C18.8493 52.6391 18.1001 52.6911 17.4226 52.9692C17.1558 53.0438 16.8813 53.0867 16.6045 53.097L16.5789 52.9564L22.8809 42.3465C23.674 42.621 24.4804 42.8557 25.2969 43.0496C26.3525 43.1645 27.4187 42.969 28.3648 42.4871C28.9656 42.2443 29.5664 42.0142 30.18 41.8224C30.5514 41.7011 30.9446 41.6612 31.3328 41.7053C31.721 41.7494 32.0951 41.8766 32.4298 42.0781C31.5146 43.272 31.1059 44.7781 31.2921 46.2709C31.2921 47.3063 31.2921 48.329 31.2921 49.3644C31.2625 49.6973 31.3105 50.0325 31.4323 50.3437C31.5542 50.6549 31.7466 50.9336 31.9943 51.1578C32.2421 51.3821 32.5386 51.5458 32.8604 51.6361C33.1821 51.7263 33.5205 51.7407 33.8487 51.6781C34.5903 51.6317 35.3073 51.3942 35.93 50.9888C36.5527 50.5834 37.0599 50.0238 37.4024 49.3644C37.4611 49.2705 37.5124 49.1722 37.5558 49.0704L37.722 48.7252C37.8262 48.7634 37.9251 48.815 38.016 48.8786L50.799 56.4206C51.07 56.5341 51.3024 56.7237 51.468 56.9664C51.6336 57.2091 51.7253 57.4946 51.7321 57.7884C51.7498 58.0101 51.7093 58.2326 51.6146 58.4338C51.52 58.6351 51.3744 58.8082 51.1924 58.936C51.0104 59.0638 50.7982 59.1419 50.5767 59.1626C50.3553 59.1832 50.1323 59.1458 49.9297 59.0539L49.9809 59.0795ZM57.7274 53.4677L54.4677 52.6496L47.2581 40.5569L48.0762 37.3356L50.0576 36.2107L59.632 52.3045L57.7274 53.4677Z" fill="#CBD5E1"/>
</svg>
