<svg width="187" height="113" viewBox="0 0 187 113" fill="none" xmlns="http://www.w3.org/2000/svg">
<path d="M141.265 16.5598L177.115 41.2157L176.484 48.0633L55.2614 82.0673L45.6094 79.8004L2 34.0877L3.72942 27.0298L111.421 2L120.559 3.51909L133.412 10.1096" stroke="#CBD5E1" stroke-width="3" stroke-miterlimit="10" stroke-linecap="round" stroke-linejoin="round"/>
<path d="M79.2862 35.5602L37.3128 47.152L24.2253 34.7189L110.462 13.8257" stroke="#CBD5E1" stroke-width="3" stroke-miterlimit="10" stroke-linecap="round" stroke-linejoin="round"/>
<path d="M91.1117 45.6561L131.66 34.7421" stroke="#CBD5E1" stroke-width="3" stroke-miterlimit="10" stroke-linecap="round" stroke-linejoin="round"/>
<path d="M78.8889 61.4313L56.687 67.344L46.1936 57.7621L79.2862 48.8346" stroke="#CBD5E1" stroke-width="3" stroke-miterlimit="10" stroke-linecap="round" stroke-linejoin="round"/>
<path d="M131.776 46.8947L91.1117 57.9255" stroke="#CBD5E1" stroke-width="3" stroke-miterlimit="10" stroke-linecap="round" stroke-linejoin="round"/>
<path d="M141.265 37.5464L148.743 42.2672L141.265 44.3005" stroke="#CBD5E1" stroke-width="3" stroke-miterlimit="10" stroke-linecap="round" stroke-linejoin="round"/>
<path d="M47.5257 29.9043L59.5382 39.3927" stroke="#CBD5E1" stroke-width="3" stroke-miterlimit="10" stroke-linecap="round" stroke-linejoin="round"/>
<path d="M70.8027 23.9449L79.2862 30.6523" stroke="#CBD5E1" stroke-width="3" stroke-miterlimit="10" stroke-linecap="round" stroke-linejoin="round"/>
<path d="M115.137 39.9069L125.981 48.4838" stroke="#CBD5E1" stroke-width="3" stroke-miterlimit="10" stroke-linecap="round" stroke-linejoin="round"/>
<path d="M92.5607 46.3103L102.54 54.1862" stroke="#CBD5E1" stroke-width="3" stroke-miterlimit="10" stroke-linecap="round" stroke-linejoin="round"/>
<path d="M68.1385 52.9478L78.889 61.4312" stroke="#CBD5E1" stroke-width="3" stroke-miterlimit="10" stroke-linecap="round" stroke-linejoin="round"/>
<path d="M73.5137 111L184.921 63.1608" stroke="#CBD5E1" stroke-width="3" stroke-miterlimit="10" stroke-linecap="round" stroke-linejoin="round"/>
<path d="M67.0635 95.3182L70.4989 94.1497" stroke="#CBD5E1" stroke-width="3" stroke-linecap="round" stroke-linejoin="round"/>
<path d="M79.6835 91.0183L172.838 59.2344" stroke="#CBD5E1" stroke-width="3" stroke-linecap="round" stroke-linejoin="round" stroke-dasharray="3.22 3.22"/>
<path d="M177.419 57.6684L180.878 56.4999" stroke="#CBD5E1" stroke-width="3" stroke-linecap="round" stroke-linejoin="round"/>
<path d="M140.751 8.42688L79.2862 23.6177V74.729L141.265 57.949L140.751 8.42688Z" stroke="#CBD5E1" stroke-width="3" stroke-miterlimit="10" stroke-linecap="round" stroke-linejoin="round"/>
<path d="M131.917 25.3472L91.1117 35.4666V71.4104L131.683 59.7018L131.917 25.3472Z" stroke="#CBD5E1" stroke-width="3" stroke-miterlimit="10" stroke-linecap="round" stroke-linejoin="round"/>
<path d="M135.96 6.20679L140.751 8.42698L79.2862 23.6178V74.7291L75.0562 70.7327L75.1029 21.1172L135.96 6.20679Z" stroke="#CBD5E1" stroke-width="3" stroke-miterlimit="10" stroke-linecap="round" stroke-linejoin="round"/>
<path d="M128.107 26.282V60.7301" stroke="#CBD5E1" stroke-width="3" stroke-miterlimit="10" stroke-linecap="round" stroke-linejoin="round"/>
</svg>
