<svg width="72" height="82" viewBox="0 0 72 82" fill="none" xmlns="http://www.w3.org/2000/svg">
<path d="M29.1718 25.22C29.3952 25.4461 29.699 25.5747 30.0169 25.5775H30.9107C31.2286 25.5747 31.5325 25.4461 31.7558 25.22L33.2185 23.7575C33.4471 23.5291 33.5757 23.2193 33.576 22.8962V18.6712H37.7527V22.8962C37.7498 23.0552 37.7784 23.2132 37.837 23.361C37.8956 23.5089 37.9829 23.6436 38.0939 23.7575L39.5566 25.22C39.7849 25.4486 40.0948 25.5772 40.4179 25.5775H41.2955C41.6186 25.5772 41.9285 25.4486 42.1568 25.22L43.6032 23.7575C43.8319 23.5291 43.9605 23.2193 43.9607 22.8962V8.27122C43.9605 7.94809 43.8319 7.6383 43.6032 7.40996L42.1568 5.94746C41.9285 5.71884 41.6186 5.59025 41.2955 5.58997H40.4179C40.0948 5.59025 39.7849 5.71884 39.5566 5.94746L38.0939 7.40996C37.9829 7.52383 37.8956 7.65858 37.837 7.80641C37.7784 7.95424 37.7498 8.11223 37.7527 8.27122V12.4962H33.576V8.27122C33.5757 7.94809 33.4471 7.6383 33.2185 7.40996L31.7558 5.94746C31.5325 5.7213 31.2286 5.59277 30.9107 5.58997H30.0169C29.699 5.59277 29.3952 5.7213 29.1718 5.94746L27.7092 7.40996C27.4805 7.6383 27.3519 7.94809 27.3517 8.27122V22.8962C27.3519 23.2193 27.4805 23.5291 27.7092 23.7575L29.1718 25.22ZM29.7731 8.74246L30.472 8.12496L31.1545 8.80747V13.6825C31.1545 14.0029 31.2807 14.3105 31.5058 14.5386C31.7308 14.7667 32.0367 14.8969 32.3571 14.9012H38.9553C39.2772 14.897 39.5848 14.7673 39.8125 14.5396C40.0402 14.3119 40.1699 14.0044 40.1741 13.6825V8.80747L40.8729 8.12496L41.5555 8.80747V22.4737L40.8729 23.1725L40.1904 22.4737V17.5987C40.1862 17.2768 40.0564 16.9692 39.8287 16.7416C39.6011 16.5139 39.2935 16.3842 38.9715 16.38H32.3571C32.0367 16.3842 31.7308 16.5145 31.5058 16.7426C31.2807 16.9707 31.1545 17.2783 31.1545 17.5987V22.4737L30.4557 23.1725L29.7731 22.4737V8.74246Z" fill="#CBD5E1"/>
<path d="M51.6477 17.6637L50.9977 21.4174C50.9643 21.6408 50.9921 21.8689 51.0779 22.0778C51.1637 22.2866 51.3045 22.4683 51.4852 22.6037C51.6671 22.736 51.8828 22.8139 52.1072 22.8282C52.3317 22.8426 52.5556 22.7929 52.7528 22.6849L56.1332 20.9137L59.4972 22.7499C59.6716 22.8456 59.8672 22.8959 60.066 22.8962C60.3217 22.8933 60.5707 22.814 60.7811 22.6687C60.9631 22.5351 61.1038 22.353 61.1872 22.1433C61.2705 21.9335 61.2931 21.7045 61.2524 21.4824L60.6186 17.7287L63.3489 15.0637C63.5137 14.9066 63.6305 14.7059 63.6857 14.485C63.7409 14.2641 63.7323 14.032 63.6608 13.8158C63.5893 13.5996 63.4578 13.4082 63.2818 13.2638C63.1057 13.1193 62.8923 13.0278 62.6663 12.9999L58.8959 12.4637L57.2708 9.03494C57.1693 8.8332 57.0137 8.66362 56.8215 8.54513C56.6292 8.42664 56.4078 8.36389 56.1819 8.36389C55.9561 8.36389 55.7347 8.42664 55.5424 8.54513C55.3501 8.66362 55.1946 8.8332 55.0931 9.03494L53.4679 12.4637L49.5838 12.9999C49.3604 13.0341 49.1509 13.1297 48.9787 13.2761C48.8065 13.4224 48.6784 13.6137 48.6087 13.8287C48.5432 14.0432 48.5373 14.2715 48.5917 14.489C48.6461 14.7066 48.7587 14.9053 48.9175 15.0637L51.6477 17.6637ZM54.3455 14.6249C54.5389 14.5998 54.7232 14.5273 54.8819 14.4139C55.0407 14.3005 55.169 14.1498 55.2556 13.9749L56.1332 12.1874L57.0107 13.9749C57.0973 14.1498 57.2256 14.3005 57.3844 14.4139C57.5431 14.5273 57.7274 14.5998 57.9208 14.6249L59.9035 14.9174L58.4734 16.3149C58.3293 16.4498 58.2211 16.6186 58.1586 16.8059C58.0962 16.9931 58.0815 17.193 58.1159 17.3874L58.4571 19.3374L56.702 18.4112C56.5244 18.3261 56.33 18.282 56.1332 18.282C55.9363 18.282 55.7419 18.3261 55.5644 18.4112L53.8742 19.4024L54.2155 17.4524C54.2498 17.258 54.2351 17.0581 54.1727 16.8709C54.1103 16.6836 54.0021 16.5149 53.8579 16.3799L52.4278 14.9824L54.3455 14.6249Z" fill="#CBD5E1"/>
<path d="M9.99497 17.6637L9.36116 21.4175C9.32045 21.6395 9.34306 21.8685 9.4264 22.0783C9.50975 22.2881 9.65047 22.4701 9.83246 22.6037C10.0176 22.7356 10.2359 22.8131 10.4628 22.8275C10.6897 22.8419 10.916 22.7925 11.1163 22.685L14.4804 20.9137L17.8445 22.75C18.0137 22.8436 18.2036 22.8939 18.397 22.8962C18.653 22.8953 18.9026 22.8159 19.1121 22.6687C19.2956 22.5358 19.4384 22.3544 19.5245 22.1449C19.6107 21.9354 19.6367 21.706 19.5996 21.4825L18.9496 17.7287L21.6798 15.0637C21.8417 14.9074 21.9565 14.7088 22.0111 14.4904C22.0657 14.2721 22.0579 14.0428 21.9886 13.8287C21.9189 13.6138 21.7908 13.4224 21.6186 13.2761C21.4464 13.1297 21.2369 13.0341 21.0135 13L17.2432 12.4637L15.618 9.03497C15.5173 8.83292 15.3618 8.66328 15.1693 8.54546C14.9767 8.42764 14.7549 8.36639 14.5292 8.36872C14.3042 8.37008 14.0839 8.43286 13.892 8.55028C13.7001 8.66769 13.5439 8.83529 13.4403 9.03497L11.8151 12.4637L7.93102 13C7.70695 13.0323 7.49657 13.1273 7.32407 13.2739C7.15158 13.4205 7.02397 13.6128 6.95593 13.8287C6.88267 14.0424 6.87284 14.2727 6.92764 14.4919C6.98243 14.711 7.0995 14.9096 7.26471 15.0637L9.99497 17.6637ZM12.6765 14.625C12.8699 14.5998 13.0542 14.5273 13.2129 14.4139C13.3717 14.3005 13.5 14.1498 13.5866 13.975L14.4641 12.1875L15.358 13.975C15.4409 14.1525 15.5682 14.3056 15.7276 14.4195C15.8871 14.5334 16.0732 14.6042 16.2681 14.625L18.2345 14.9175L16.8044 16.315C16.6655 16.4531 16.5619 16.6228 16.5025 16.8095C16.4431 16.9962 16.4296 17.1944 16.4631 17.3875L16.7881 19.3375L15.0329 18.4112C14.8548 18.3279 14.6608 18.2836 14.4641 18.2812C14.2724 18.2817 14.0834 18.3261 13.9116 18.4112L12.1402 19.3375L12.4815 17.3875C12.5158 17.1931 12.5011 16.9932 12.4387 16.8059C12.3762 16.6186 12.2681 16.4499 12.1239 16.315L10.71 14.9175L12.6765 14.625Z" fill="#CBD5E1"/>
<path d="M71.2634 4.25745L67.6718 0.68245C67.4596 0.46907 67.1759 0.341732 66.8755 0.324951H5.11954C4.79639 0.325236 4.48657 0.453825 4.25821 0.68245L0.666612 4.2737C0.437965 4.50204 0.309367 4.81183 0.309082 5.13495V76.7812C0.311886 77.099 0.440427 77.4028 0.666612 77.6262L4.20945 81.2499C4.43282 81.4761 4.73666 81.6047 5.05453 81.6075H23.4513C23.7744 81.6072 24.0843 81.4786 24.3126 81.2499L27.8717 77.6262C28.1004 77.3979 28.229 77.0881 28.2293 76.7649V63.0987L31.122 60.2062H40.7267L43.6032 63.0987V76.7812C43.606 77.099 43.7346 77.4028 43.9608 77.6262L47.5686 81.2499C47.792 81.4761 48.0958 81.6047 48.4137 81.6075H66.8755C67.1986 81.6072 67.5084 81.4786 67.7368 81.2499L71.3284 77.6587C71.557 77.4304 71.6856 77.1206 71.6859 76.7975V5.1187C71.6774 4.95403 71.6356 4.79279 71.563 4.64476C71.4903 4.49672 71.3884 4.36496 71.2634 4.25745ZM5.57458 2.7462H66.3066L69.1994 5.62245V27.4625H2.68181V5.6387L5.57458 2.7462ZM66.3066 79.1212H48.9987L46.1222 76.2449V62.595C46.1134 62.2751 45.9791 61.9716 45.7484 61.75L42.1568 58.1587C41.9335 57.9325 41.6296 57.804 41.3118 57.8012H30.6345C30.3166 57.804 30.0128 57.9325 29.7894 58.1587L26.2466 61.75C26.0179 61.9783 25.8893 62.2881 25.889 62.6112V76.2775L22.9963 79.1537H5.55833L2.68181 76.2775V29.8837H69.1994V76.2612L66.3066 79.1212Z" fill="#CBD5E1"/>
<path d="M20.5423 33.6537H8.36984C8.04788 33.6579 7.7403 33.7877 7.51262 34.0153C7.28495 34.243 7.15518 34.5505 7.15097 34.8724V41.2262C7.15524 41.5466 7.28554 41.8524 7.51366 42.0775C7.74179 42.3025 8.04937 42.4287 8.36984 42.4287H20.5098C20.8287 42.4287 21.1346 42.302 21.3601 42.0765C21.5857 41.851 21.7124 41.5451 21.7124 41.2262V34.8724C21.7126 34.5575 21.5909 34.2547 21.3728 34.0274C21.1546 33.8002 20.857 33.6663 20.5423 33.6537ZM19.3234 40.0074H9.57246V36.0749H19.3234V40.0074Z" fill="#CBD5E1"/>
<path d="M20.5423 44.59H8.36984C8.04937 44.5899 7.74179 44.7161 7.51366 44.9412C7.28554 45.1662 7.15524 45.4721 7.15097 45.7925V52.1462C7.15518 52.4681 7.28495 52.7757 7.51262 53.0034C7.7403 53.231 8.04788 53.3608 8.36984 53.365H20.5098C20.8302 53.3607 21.1361 53.2304 21.3611 53.0023C21.5862 52.7742 21.7124 52.4667 21.7124 52.1462V45.7925C21.7125 45.4791 21.5902 45.1781 21.3717 44.9535C21.1531 44.7289 20.8555 44.5984 20.5423 44.59ZM19.3234 50.9437H9.57246V47.0112H19.3234V50.9437Z" fill="#CBD5E1"/>
<path d="M20.5423 55.51H8.36984C8.04937 55.51 7.74179 55.6362 7.51366 55.8612C7.28554 56.0863 7.15524 56.3921 7.15097 56.7125V63.0663C7.15097 63.3895 7.27939 63.6995 7.50797 63.928C7.73655 64.1566 8.04657 64.285 8.36984 64.285H20.5098C20.6691 64.285 20.8268 64.2534 20.9738 64.1919C21.1207 64.1305 21.254 64.0405 21.3659 63.9271C21.4778 63.8137 21.5661 63.6792 21.6255 63.5314C21.685 63.3837 21.7145 63.2255 21.7124 63.0663V56.7125C21.7125 56.3991 21.5902 56.0981 21.3717 55.8735C21.1531 55.6489 20.8555 55.5185 20.5423 55.51ZM19.3234 61.8638H9.57246V57.9313H19.3234V61.8638Z" fill="#CBD5E1"/>
<path d="M20.5423 66.4299H8.36984C8.04788 66.4341 7.7403 66.5639 7.51262 66.7915C7.28495 67.0192 7.15518 67.3268 7.15097 67.6487V74.0024C7.15524 74.3228 7.28554 74.6287 7.51366 74.8537C7.74179 75.0788 8.04937 75.205 8.36984 75.2049H20.5098C20.8287 75.2049 21.1346 75.0782 21.3601 74.8527C21.5857 74.6272 21.7124 74.3214 21.7124 74.0024V67.6487C21.7126 67.3337 21.5909 67.0309 21.3728 66.8037C21.1546 66.5765 20.857 66.4425 20.5423 66.4299ZM19.3234 72.7837H9.57246V68.8512H19.3234V72.7837Z" fill="#CBD5E1"/>
<path d="M63.9664 33.6537H51.8265C51.506 33.658 51.2002 33.7882 50.9751 34.0163C50.75 34.2444 50.6238 34.552 50.6239 34.8724V41.2262C50.6239 41.5451 50.7506 41.851 50.9761 42.0765C51.2016 42.302 51.5075 42.4287 51.8265 42.4287H63.9664C64.2854 42.4287 64.5912 42.302 64.8168 42.0765C65.0423 41.851 65.169 41.5451 65.169 41.2262V34.8724C65.169 34.552 65.0429 34.2444 64.8178 34.0163C64.5927 33.7882 64.2868 33.658 63.9664 33.6537ZM62.7475 40.0074H52.9966V36.0749H62.7475V40.0074Z" fill="#CBD5E1"/>
<path d="M63.9664 44.59H51.8265C51.5075 44.59 51.2016 44.7167 50.9761 44.9422C50.7506 45.1677 50.6239 45.4735 50.6239 45.7925V52.1462C50.6238 52.4667 50.75 52.7742 50.9751 53.0023C51.2002 53.2304 51.506 53.3607 51.8265 53.365H63.9664C64.2868 53.3607 64.5927 53.2304 64.8178 53.0023C65.0429 52.7742 65.169 52.4667 65.169 52.1462V45.7925C65.169 45.4735 65.0423 45.1677 64.8168 44.9422C64.5912 44.7167 64.2854 44.59 63.9664 44.59ZM62.7475 50.9437H52.9966V47.0112H62.7475V50.9437Z" fill="#CBD5E1"/>
<path d="M63.9664 55.51H51.8265C51.6685 55.51 51.5122 55.5411 51.3663 55.6015C51.2204 55.662 51.0878 55.7505 50.9761 55.8622C50.8644 55.9739 50.7758 56.1064 50.7154 56.2523C50.655 56.3982 50.6239 56.5546 50.6239 56.7125V63.0663C50.6217 63.2255 50.6512 63.3837 50.7107 63.5314C50.7702 63.6792 50.8584 63.8137 50.9703 63.9271C51.0822 64.0405 51.2155 64.1305 51.3625 64.1919C51.5094 64.2534 51.6672 64.285 51.8265 64.285H63.9664C64.1257 64.285 64.2834 64.2534 64.4304 64.1919C64.5774 64.1305 64.7107 64.0405 64.8226 63.9271C64.9344 63.8137 65.0227 63.6792 65.0822 63.5314C65.1416 63.3837 65.1712 63.2255 65.169 63.0663V56.7125C65.169 56.5546 65.1379 56.3982 65.0775 56.2523C65.017 56.1064 64.9284 55.9739 64.8168 55.8622C64.7051 55.7505 64.5725 55.662 64.4266 55.6015C64.2807 55.5411 64.1243 55.51 63.9664 55.51ZM62.7475 61.8638H52.9966V57.9313H62.7475V61.8638Z" fill="#CBD5E1"/>
<path d="M63.9664 66.4299H51.8265C51.506 66.4342 51.2002 66.5645 50.9751 66.7926C50.75 67.0207 50.6238 67.3282 50.6239 67.6487V74.0024C50.6239 74.3214 50.7506 74.6272 50.9761 74.8527C51.2016 75.0782 51.5075 75.2049 51.8265 75.2049H63.9664C64.2854 75.2049 64.5912 75.0782 64.8168 74.8527C65.0423 74.6272 65.169 74.3214 65.169 74.0024V67.6487C65.169 67.3282 65.0429 67.0207 64.8178 66.7926C64.5927 66.5645 64.2868 66.4342 63.9664 66.4299ZM62.7475 72.7837H52.9966V68.8512H62.7475V72.7837Z" fill="#CBD5E1"/>
<path d="M42.0105 33.6537H29.8706C29.5487 33.6579 29.2411 33.7877 29.0134 34.0153C28.7857 34.243 28.656 34.5505 28.6518 34.8724V41.2262C28.656 41.5466 28.7863 41.8524 29.0145 42.0775C29.2426 42.3025 29.5502 42.4287 29.8706 42.4287H42.0105C42.1685 42.4287 42.3249 42.3976 42.4708 42.3372C42.6167 42.2767 42.7492 42.1881 42.8609 42.0765C42.9726 41.9648 43.0612 41.8323 43.1216 41.6864C43.1821 41.5405 43.2132 41.3841 43.2132 41.2262V34.8724C43.2132 34.552 43.087 34.2444 42.8619 34.0163C42.6368 33.7882 42.331 33.658 42.0105 33.6537ZM40.8729 40.0074H31.122V36.0749H40.8729V40.0074Z" fill="#CBD5E1"/>
<path d="M42.0105 44.59H29.8706C29.5502 44.5899 29.2426 44.7161 29.0145 44.9412C28.7863 45.1662 28.656 45.4721 28.6518 45.7925V52.1462C28.656 52.4681 28.7857 52.7757 29.0134 53.0034C29.2411 53.231 29.5487 53.3608 29.8706 53.365H42.0105C42.331 53.3607 42.6368 53.2304 42.8619 53.0023C43.087 52.7742 43.2132 52.4667 43.2132 52.1462V45.7925C43.2132 45.6346 43.1821 45.4782 43.1216 45.3323C43.0612 45.1864 42.9726 45.0538 42.8609 44.9422C42.7492 44.8305 42.6167 44.7419 42.4708 44.6815C42.3249 44.6211 42.1685 44.59 42.0105 44.59ZM40.8729 50.9437H31.122V47.0112H40.8729V50.9437Z" fill="#CBD5E1"/>
</svg>
