<svg width="69" height="56" viewBox="0 0 69 56" fill="none" xmlns="http://www.w3.org/2000/svg">
<g clip-path="url(#clip0_405_2)">
<path d="M68 35.0799C68.0155 34.9402 67.9919 34.7989 67.9319 34.6718C67.8718 34.5447 67.7777 34.4367 67.66 34.3599L44.91 19.1599C44.8215 19.1003 44.7216 19.0597 44.6166 19.0408C44.5116 19.0219 44.4038 19.025 44.3 19.0499L14.08 26.0499V24.1499L19.74 23.5499C19.8419 23.5396 19.9406 23.5086 20.03 23.4587C20.1195 23.4088 20.1977 23.3412 20.26 23.2599L22.07 21.0399C22.2004 20.8762 22.2614 20.668 22.24 20.4599C22.2112 20.2849 22.1271 20.1236 22 19.9999L19.7 18.1199C19.5364 17.9896 19.3282 17.9285 19.12 17.9499L14.12 18.4799V16.8799L16.93 16.5799C17.1357 16.5568 17.325 16.4568 17.46 16.2999C17.5904 16.1362 17.6514 15.928 17.63 15.7199L17.2 11.6599C17.1773 11.4537 17.0744 11.2646 16.9135 11.1337C16.7526 11.0027 16.5466 10.9403 16.34 10.9599L14.12 11.1899V9.9099L20 9.2799C20.1036 9.27095 20.2043 9.24055 20.2955 9.19063C20.3868 9.1407 20.4666 9.07235 20.53 8.9899L22.33 6.7699C22.3965 6.68999 22.4459 6.59729 22.4752 6.49753C22.5044 6.39776 22.5129 6.29306 22.5 6.1899C22.4769 5.98423 22.3769 5.7949 22.22 5.6599L20 3.8299C19.8359 3.70052 19.6281 3.63961 19.42 3.6599L14.1 4.2199V2.7899C14.1198 2.50395 14.0806 2.21698 13.9848 1.94683C13.889 1.67669 13.7387 1.42913 13.5431 1.21956C13.3476 1.00999 13.111 0.842886 12.8481 0.728632C12.5852 0.614378 12.3017 0.55542 12.015 0.55542C11.7284 0.55542 11.4448 0.614378 11.1819 0.728632C10.9191 0.842886 10.6825 1.00999 10.4869 1.21956C10.2914 1.42913 10.141 1.67669 10.0452 1.94683C9.94943 2.21698 9.91021 2.50395 9.93003 2.7899V4.6599L6.93003 4.9699C6.7232 4.99655 6.53399 5.10009 6.40003 5.2599C6.2697 5.42357 6.20867 5.63178 6.23003 5.8399L6.65003 9.8999C6.67668 10.1067 6.78021 10.2959 6.94002 10.4299C7.08031 10.5387 7.25247 10.5985 7.43003 10.5999H7.52003L9.93003 10.3399V11.6299L3.82003 12.2699C3.61381 12.2984 3.42522 12.4016 3.29003 12.5599L1.46002 14.8199C1.32888 14.9831 1.26786 15.1916 1.29036 15.3997C1.31286 15.6079 1.41704 15.7985 1.58003 15.9299L3.80003 17.7299C3.94338 17.8402 4.11917 17.8999 4.30003 17.8999H4.38003L9.93003 17.3199V18.9199L6.67002 19.2599C6.46187 19.2825 6.27123 19.3869 6.13998 19.55C6.00872 19.7132 5.9476 19.9217 5.97003 20.1299L6.40003 24.1899C6.40889 24.2925 6.43824 24.3922 6.48633 24.4833C6.53443 24.5743 6.60029 24.6548 6.68003 24.7199C6.82339 24.8302 6.99917 24.8899 7.18003 24.8899H7.26002L9.96002 24.5999V26.8199L1.96002 28.9099C1.82369 28.9483 1.70001 29.0223 1.60162 29.1242C1.50323 29.2261 1.43366 29.3523 1.40003 29.4899L0.750026 32.1399C0.745109 32.1998 0.745109 32.26 0.750026 32.3199V36.2399C0.750282 36.4446 0.829017 36.6415 0.970025 36.7899L18.77 55.4499L18.85 55.5199C18.9789 55.6105 19.1325 55.6593 19.29 55.6599C19.3529 55.6703 19.4171 55.6703 19.48 55.6599L67.21 42.1299C67.3738 42.0841 67.5181 41.9861 67.621 41.8507C67.7239 41.7153 67.7798 41.55 67.78 41.3799V37.7199C67.78 37.7199 67.78 37.7199 67.78 37.6599L68 35.0799ZM40.5 29.2799L37.27 26.6999L42 25.5599L45.16 27.9999L40.5 29.2799ZM35.3 27.1699L38.62 29.7999L32.33 31.5399C32.3059 31.5108 32.2792 31.484 32.25 31.4599L28.81 28.7499L35.3 27.1699ZM26.87 29.1699L30.47 31.9999L23.69 33.8799C23.6411 33.7924 23.5767 33.7145 23.5 33.6499L20 30.8999L26.87 29.1699ZM18 31.3599L21.88 34.4199L14.88 36.3599L11.35 32.9999L18 31.3599ZM12.48 24.3599V31.1199L11.48 31.3699V24.4699L12.48 24.3599ZM12.48 10.0999V11.3899L11.48 11.4999V10.1799L12.48 10.0999ZM12 2.2699C12.1379 2.2699 12.2702 2.32469 12.3677 2.4222C12.4652 2.51972 12.52 2.65199 12.52 2.7899V4.3899L11.52 4.4899V2.7899C11.5172 2.65796 11.5657 2.53007 11.6552 2.4331C11.7447 2.33613 11.8683 2.27763 12 2.2699ZM7.86003 6.4499L10.34 6.1899L12.93 5.9199L19.25 5.2599L20.65 6.3899L19.55 7.7599L13.19 8.4199L10.6 8.6899L8.12002 8.9999L7.86003 6.4499ZM3.16003 15.1999L4.30003 13.7999L10.3 13.1699L12.89 12.8999H13.27C13.333 12.9095 13.3971 12.9095 13.46 12.8999L15.65 12.6699L16 15.1099L13.21 15.3999L10.62 15.6699L4.62003 16.3099L3.16003 15.1999ZM11.49 17.1499L12.49 17.0399V18.6499L11.49 18.7499V17.1499ZM7.57003 20.7399L10.05 20.4799L12.64 20.2099L19 19.5499L20.4 20.6799L19.26 21.9999L12.9 22.6699L10.32 22.9999L7.83003 23.2699L7.57003 20.7399ZM2.71002 30.3099L9.91003 28.4399V31.7199L9.59003 31.7999C9.45287 31.8322 9.3272 31.9014 9.2267 32.0002C9.12619 32.0989 9.05471 32.2233 9.02003 32.3599C8.98244 32.4953 8.98212 32.6383 9.01908 32.7738C9.05604 32.9093 9.12893 33.0324 9.23003 33.1299L14.16 37.8099C14.3064 37.9466 14.4997 38.0218 14.7 38.0199C14.7697 38.0297 14.8404 38.0297 14.91 38.0199L47.1 29.1099C47.2399 29.0718 47.3664 28.9955 47.4653 28.8895C47.5642 28.7835 47.6317 28.6521 47.66 28.5099C47.6891 28.3658 47.6773 28.2164 47.6261 28.0786C47.5748 27.9408 47.4862 27.8201 47.37 27.7299L42.68 24.0999C42.5862 24.0311 42.4789 23.983 42.3651 23.9589C42.2513 23.9347 42.1337 23.9351 42.02 23.9599L14.07 30.7099V27.7099L44.31 20.7099L66.43 35.3999L66.28 36.9999L19.46 50.1099L2.28003 32.1099L2.71002 30.3099ZM2.20003 34.3099L18.44 51.3099V52.9999L2.20003 35.9999V34.3099ZM20 53.8799V51.5799L66.2 38.5799V40.7399L20 53.8799Z" fill="#CBD5E1"/>
<path d="M22 45.6201C22.0697 45.6298 22.1404 45.6298 22.21 45.6201L30.31 43.4101C30.4674 43.4083 30.6206 43.3595 30.75 43.2701L56.75 36.1801C56.8971 36.1407 57.0295 36.0591 57.1308 35.9454C57.2321 35.8316 57.2979 35.6908 57.32 35.5401C57.3443 35.389 57.323 35.2341 57.2589 35.0952C57.1948 34.9563 57.0907 34.8396 56.96 34.7601L51.9 31.5601C51.8075 31.501 51.7034 31.4625 51.5948 31.4469C51.4861 31.4314 51.3754 31.4393 51.27 31.4701L17.78 40.4701C17.6448 40.5053 17.5219 40.5772 17.4249 40.6778C17.3279 40.7783 17.2604 40.9037 17.23 41.0401C17.1968 41.1757 17.2006 41.3178 17.2411 41.4515C17.2815 41.5852 17.3572 41.7056 17.46 41.8001L21.4 45.4101C21.4793 45.4858 21.5739 45.5437 21.6773 45.5799C21.7808 45.6161 21.8908 45.6298 22 45.6201ZM35 37.4801V37.5301L37.78 39.7201L30.48 41.7201L27.6 39.4601L35 37.4801ZM43.59 35.1701L46.39 37.3901L39.7 39.2101L36.8 37.0001L43.59 35.1701ZM51.46 33.0501L54.73 35.1201L48.2 36.8701L45.4 34.6601L51.46 33.0501ZM25.72 40.0001L25.79 40.0701L28.57 42.2601L22.18 44.0001L19.61 41.6501L25.72 40.0001Z" fill="#CBD5E1"/>
</g>
<defs>
<clipPath id="clip0_405_2">
<rect width="69" height="56" fill="white"/>
</clipPath>
</defs>
</svg>
