<svg width="65" height="76" viewBox="0 0 65 76" fill="none" xmlns="http://www.w3.org/2000/svg">
<path d="M63.6221 64.2702H43.4557C44.2709 55.7067 45.9806 47.2521 48.5568 39.0447L50.4908 44.2019C50.5388 44.3423 50.6199 44.469 50.7273 44.5715C50.8346 44.6739 50.965 44.749 51.1074 44.7905C51.2092 44.8105 51.3139 44.8105 51.4157 44.7905C51.6037 44.787 51.7875 44.7338 51.9483 44.6363C53.2656 43.8235 55.3117 41.0767 53.7 36.6062L60.9033 39.7034C61.0381 39.7624 61.1836 39.7929 61.3307 39.7929C61.4779 39.7929 61.6234 39.7624 61.7582 39.7034C61.9871 39.6023 62.1679 39.4164 62.2627 39.1848C62.627 37.4191 61.9684 33.4811 56.8252 31.2528C56.4506 31.0743 56.067 30.9153 55.676 30.7763L61.2817 27.5391C61.4066 27.4631 61.5137 27.3612 61.5959 27.2404C61.6781 27.1195 61.7334 26.9824 61.7582 26.8384C61.7799 26.6915 61.77 26.5417 61.7289 26.3991C61.6877 26.2564 61.6165 26.1243 61.5199 26.0115C60.3147 24.6101 56.7551 22.8584 51.9062 25.6612C51.421 25.9361 50.953 26.2403 50.5048 26.5721C47.9262 20.7002 43.1754 21.2047 42.9792 21.2327C42.8265 21.2532 42.6803 21.308 42.5517 21.393C42.4231 21.4779 42.3153 21.5908 42.2365 21.7232C42.1675 21.8601 42.1315 22.0113 42.1315 22.1647C42.1315 22.318 42.1675 22.4692 42.2365 22.6061L44.717 28.6042C43.4541 28.1303 42.1136 27.8974 40.765 27.9175C35.6638 27.9175 33.6178 30.5801 32.861 32.1217C32.0342 29.8234 31.2213 27.6652 30.4225 25.6892L36.3365 28.2538C36.5116 28.3372 36.7031 28.3805 36.8971 28.3805C37.091 28.3805 37.2825 28.3372 37.4576 28.2538C37.6292 28.1632 37.78 28.0379 37.9007 27.8859C38.0213 27.7339 38.109 27.5586 38.1583 27.3709C38.4094 25.8613 38.2695 24.3126 37.7518 22.8724C37.2341 21.4323 36.3561 20.1489 35.2014 19.1446L45.2355 19.2567C45.4342 19.251 45.6295 19.2031 45.8083 19.1161C45.9871 19.0291 46.1454 18.9051 46.2725 18.7522C46.3934 18.5921 46.4784 18.4079 46.522 18.212C46.5655 18.0162 46.5664 17.8133 46.5248 17.6171C46.4407 17.3088 44.5908 10.1195 34.3745 10.0634C32.3571 10.0048 30.3477 10.3428 28.4606 11.0584C28.4679 10.9511 28.4679 10.8434 28.4606 10.7361L32.1323 1.97727C32.2151 1.78963 32.2519 1.58494 32.2397 1.3802C32.2275 1.17546 32.1667 0.976584 32.0622 0.800085C31.955 0.628093 31.8118 0.481391 31.6424 0.370097C31.4731 0.258804 31.2816 0.185566 31.0812 0.155432C30.7729 0.155432 23.7658 -0.643374 20.01 8.12948C19.3276 7.61465 18.6113 7.14645 17.8659 6.72807C8.98089 1.6129 3.85171 7.16251 3.85171 7.21856C3.7187 7.36446 3.62058 7.53866 3.56474 7.72802C3.5089 7.91738 3.49681 8.11695 3.52939 8.31167C3.55822 8.50332 3.6299 8.68602 3.73908 8.84615C3.84826 9.00629 3.99215 9.13974 4.16002 9.2366L12.6946 14.2116C12.0145 14.4251 11.3456 14.673 10.6906 14.9544C1.30114 19.0465 2.71657 26.46 2.73058 26.5301C2.77477 26.7216 2.85874 26.9016 2.97704 27.0586C3.09535 27.2155 3.24534 27.3458 3.41727 27.441C3.59601 27.5202 3.78935 27.5611 3.98485 27.5611C4.18034 27.5611 4.37367 27.5202 4.55242 27.441L15.5115 22.7322C15.506 22.7881 15.506 22.8445 15.5115 22.9004C13.059 29.5151 16.072 33.5511 18.006 34.7564C18.2133 34.8949 18.4574 34.9681 18.7067 34.9666C18.8496 34.9648 18.9914 34.9412 19.1271 34.8965C19.311 34.8277 19.4784 34.7211 19.6184 34.5835C19.7584 34.4458 19.868 34.2804 19.94 34.0977L22.0981 28.3519L22.939 26.0676C26.8215 38.4935 29.354 51.3017 30.4926 64.2702H1.5674C1.39322 64.2702 1.22077 64.3047 1.06003 64.3718C0.899281 64.4388 0.753432 64.5371 0.630922 64.6609C0.508411 64.7848 0.411669 64.9316 0.346297 65.0931C0.280925 65.2545 0.248222 65.4273 0.250075 65.6015V70.7587C0.258602 71.1098 0.39864 71.4449 0.642469 71.6977L4.55242 75.6216C4.80732 75.8603 5.14217 75.9953 5.49137 76H59.6981C60.0473 75.9953 60.3821 75.8603 60.637 75.6216L64.561 71.6977C64.8048 71.4449 64.9449 71.1098 64.9534 70.7587V65.6015C64.9364 65.2539 64.7907 64.9251 64.5446 64.679C64.2985 64.4329 63.9697 64.2872 63.6221 64.2702ZM40.1484 64.2702C39.8961 61.2291 39.5037 58.2161 38.9992 55.2591C40.5511 50.1845 42.4234 45.2135 44.6049 40.376C45.0113 39.4511 45.3476 38.6523 45.6279 37.9796L45.9642 37.1388C46.0338 36.9552 46.0483 36.7554 46.006 36.5637C45.9636 36.372 45.8663 36.1969 45.726 36.0597C45.5834 35.9227 45.4027 35.832 45.2076 35.7995C45.0126 35.7669 44.8122 35.7941 44.6329 35.8775L44.4367 35.9616L44.0863 35.2609C44.0464 35.183 43.9914 35.1139 43.9245 35.0576C43.8576 35.0012 43.7801 34.9587 43.6966 34.9327C43.6132 34.9066 43.5253 34.8974 43.4382 34.9056C43.3511 34.9138 43.2665 34.9393 43.1894 34.9806C43.1121 35.0191 43.0432 35.0728 42.987 35.1384C42.9308 35.204 42.8884 35.2803 42.8622 35.3627C42.8361 35.445 42.8268 35.5318 42.8348 35.6178C42.8429 35.7039 42.8682 35.7874 42.9091 35.8635L43.2315 36.4941L39.9802 37.8955C40.2162 37.0606 40.6429 36.2919 41.2265 35.6499C41.8102 35.0079 42.5349 34.5101 43.3436 34.1958V34.1958H45.9642C45.8912 34.4376 45.9128 34.698 46.0247 34.9244C46.1366 35.1508 46.3304 35.3262 46.5668 35.415C46.6828 35.4349 46.8013 35.4349 46.9172 35.415C47.1206 35.4147 47.3189 35.3511 47.4846 35.2331C47.6503 35.1151 47.7753 34.9485 47.8421 34.7564L48.0243 34.2659C44.6282 43.964 42.4258 54.0396 41.4657 64.2702H40.1484ZM51.7521 37.321C52.1074 38.0599 52.2919 38.8694 52.2919 39.6893C52.2919 40.5093 52.1074 41.3188 51.7521 42.0577L51.0934 40.32C51.242 40.2523 51.3593 40.1307 51.4217 39.9799C51.4842 39.829 51.487 39.6601 51.4297 39.5072C51.3726 39.3542 51.2606 39.2279 51.1156 39.1528C50.9706 39.0777 50.8029 39.0591 50.6449 39.1007L50.3507 38.1338L50.701 38.0076C50.8651 37.9447 50.9981 37.82 51.0715 37.6602C51.1448 37.5004 51.1527 37.3183 51.0934 37.1528C51.0334 36.9897 50.9113 36.8569 50.7538 36.7834C50.5963 36.7099 50.4161 36.7016 50.2526 36.7604L49.8742 36.9005L49.5939 36.382L49.9583 35.1768L50.9112 35.5832C51.256 36.129 51.5381 36.7119 51.7521 37.321V37.321ZM60.1606 37.321L55.1435 35.1628L55.5639 34.1958C55.5989 34.1167 55.6179 34.0314 55.6199 33.9449C55.622 33.8584 55.6069 33.7724 55.5757 33.6917C55.5445 33.611 55.4976 33.5373 55.4379 33.4747C55.3782 33.4121 55.3067 33.3619 55.2276 33.3269C55.1484 33.292 55.0632 33.2729 54.9767 33.2709C54.8902 33.2689 54.8042 33.2839 54.7235 33.3151C54.6428 33.3464 54.5691 33.3932 54.5065 33.4529C54.4439 33.5127 54.3937 33.5841 54.3587 33.6633L53.9243 34.6442L51.8922 33.7614L49.9022 32.7243C50.5502 32.4055 51.2554 32.2197 51.9763 32.1778V32.1778C52.2328 32.1566 52.4906 32.1566 52.7471 32.1778C53.8633 32.2311 54.9583 32.5025 55.9703 32.9766C59.0815 34.3219 60.0064 36.1578 60.2587 37.391L60.1606 37.321ZM52.7611 27.2728C53.9602 26.5182 55.339 26.0973 56.7551 26.0536C57.4653 26.0458 58.1686 26.1941 58.8152 26.488L54.0924 29.2908L53.5739 28.3799C53.4833 28.2292 53.3382 28.1191 53.1687 28.0721C52.9993 28.0252 52.8182 28.0451 52.663 28.1277C52.512 28.2181 52.4025 28.3642 52.3579 28.5345C52.3134 28.7048 52.3374 28.8858 52.4248 29.0386L52.9433 29.9635L52.5649 30.1878C51.4657 30.1523 50.3729 30.3679 49.3697 30.8184C50.1172 29.3064 51.3442 28.0843 52.8592 27.3429L52.7611 27.2728ZM48.9492 27.8474V27.9735C48.3509 28.6567 47.8766 29.4393 47.5478 30.2859L46.9172 28.7863L47.744 28.478C47.9056 28.4124 48.0354 28.2866 48.106 28.1271C48.1766 27.9676 48.1825 27.7869 48.1224 27.6232C48.0914 27.542 48.0446 27.4678 47.9848 27.4047C47.9249 27.3417 47.8532 27.2912 47.7737 27.256C47.6943 27.2208 47.6086 27.2017 47.5218 27.1998C47.4349 27.1979 47.3485 27.2132 47.2675 27.2448L46.4127 27.5671L44.6469 23.3629C45.673 23.7072 46.6003 24.295 47.3496 25.076C48.0988 25.857 48.6477 26.8079 48.9492 27.8474V27.8474ZM40.751 29.8654H40.835C41.7732 29.7909 42.7165 29.9132 43.6046 30.2245C44.4927 30.5358 45.306 31.0293 45.9923 31.6733V31.6733H44.1844C44.0826 31.6532 43.9779 31.6532 43.8761 31.6733L43.6659 31.7573V31.5191C43.6659 31.3444 43.5965 31.1769 43.473 31.0533C43.3495 30.9298 43.1819 30.8604 43.0072 30.8604C42.8326 30.8604 42.665 30.9298 42.5415 31.0533C42.418 31.1769 42.3486 31.3444 42.3486 31.5191V32.1778H40.9472V30.7763C40.9472 30.6017 40.8778 30.4341 40.7542 30.3106C40.6307 30.1871 40.4632 30.1177 40.2885 30.1177C40.1138 30.1177 39.9463 30.1871 39.8228 30.3106C39.6992 30.4341 39.6298 30.6017 39.6298 30.7763V32.1778H35.0192C35.7137 31.3656 36.5928 30.7318 37.5828 30.3295C38.5727 29.9272 39.6448 29.768 40.7089 29.8654H40.751ZM39.9522 34.2238C39.2143 34.9126 38.6589 35.7739 38.3361 36.7303C38.0132 37.6867 37.9329 38.7083 38.1023 39.7034C38.1356 39.8443 38.1992 39.9762 38.2888 40.09C38.3784 40.2037 38.4917 40.2966 38.6208 40.362C38.7522 40.4243 38.8958 40.4567 39.0412 40.4567C39.1867 40.4567 39.3303 40.4243 39.4617 40.362L43.2595 38.6803L42.8671 39.5632C41.4657 42.7164 39.6579 47.0047 38.2564 51.0969C37.0558 45.403 35.5114 39.787 33.6318 34.2799L39.9522 34.2238ZM21.7338 14.604L21.4955 14.4919L21.6357 14.3938C21.6626 14.4483 21.6861 14.5045 21.7057 14.562L21.7338 14.604ZM43.1894 16.608H36.4346V14.2256C36.4008 13.8979 36.2468 13.5943 36.0021 13.3736C35.7575 13.1529 35.4397 13.0307 35.1103 13.0307C34.7808 13.0307 34.463 13.1529 34.2184 13.3736C33.9738 13.5943 33.8197 13.8979 33.7859 14.2256V16.58H32.3845V15.599C32.3508 15.2713 32.1967 14.9677 31.952 14.747C31.7074 14.5263 31.3897 14.4041 31.0602 14.4041C30.7307 14.4041 30.4129 14.5263 30.1683 14.747C29.9237 14.9677 29.7696 15.2713 29.7358 15.599V15.9634C29.6068 15.9119 29.4683 15.888 29.3294 15.8933H26.5266L26.6387 15.613C27.942 14.2116 30.2964 12.8102 34.5147 12.8102C39.6018 12.7121 42.0683 14.9544 43.1614 16.566L43.1894 16.608ZM28.7969 2.95826L26.2323 9.18054L24.8309 8.63399C24.6653 8.56958 24.4886 8.53842 24.3109 8.5423C24.1332 8.54617 23.958 8.585 23.7954 8.65658C23.6327 8.72815 23.4857 8.83106 23.3628 8.95944C23.2399 9.08781 23.1435 9.23914 23.0791 9.40477C23.0147 9.5704 22.9835 9.7471 22.9874 9.92478C22.9913 10.1025 23.0301 10.2776 23.1017 10.4403C23.1733 10.603 23.2762 10.7499 23.4046 10.8728C23.5329 10.9957 23.6843 11.0921 23.8499 11.1565L25.2513 11.6751L24.2843 13.9594C23.7873 12.5468 23.0157 11.2466 22.014 10.1335C22.0529 10.0424 22.0857 9.94873 22.1121 9.85322C23.976 4.94827 26.891 3.42073 28.7969 2.95826ZM16.4644 8.98435C17.8356 9.74219 19.0678 10.7279 20.1081 11.8993L19.6877 12.642C19.5987 12.823 19.5524 13.022 19.5524 13.2236C19.5524 13.4253 19.5987 13.6243 19.6877 13.8052C18.7172 13.56 17.7172 13.4515 16.7167 13.4829L16.4084 13.3007L17.2632 11.8012C17.4139 11.486 17.4414 11.1258 17.3402 10.7914C17.2391 10.4569 17.0168 10.1723 16.7167 9.99337C16.4063 9.83898 16.0497 9.8051 15.7159 9.89828C15.382 9.99146 15.0945 10.2051 14.9089 10.4979L14.068 11.8993L7.14503 7.93329C8.81272 7.07842 11.9519 6.37772 16.4644 8.98435V8.98435ZM11.6576 17.3928C13.1597 16.708 14.7747 16.3042 16.4224 16.2016C16.6183 16.1876 16.815 16.1876 17.011 16.2016H17.2072C18.5145 16.234 19.7942 16.5852 20.935 17.2247L17.7678 18.8924L15.077 20.0555L14.3763 18.4859C14.3064 18.3267 14.2058 18.1829 14.0803 18.0626C13.9547 17.9423 13.8067 17.8479 13.6447 17.7847C13.4827 17.7216 13.3098 17.691 13.136 17.6947C12.9622 17.6984 12.7908 17.7363 12.6316 17.8063C12.4724 17.8762 12.3285 17.9768 12.2082 18.1023C12.0879 18.2279 11.9935 18.3758 11.9304 18.5379C11.8673 18.6999 11.8367 18.8727 11.8404 19.0466C11.8441 19.2204 11.882 19.3918 11.9519 19.551L12.6386 21.1066L5.28115 24.2738C5.57545 22.3679 6.90679 19.4249 11.6576 17.3368V17.3928ZM18.034 31.2668C17.1932 29.9635 16.4504 27.5951 17.8238 23.8674C18.1763 22.9109 18.6471 22.0022 19.2252 21.1626L20.8088 20.476L21.3834 22.3679L21.1592 22.9284L21.005 22.5921C20.8638 22.2724 20.6014 22.022 20.2755 21.8958C19.9496 21.7697 19.5869 21.7782 19.2673 21.9194C18.9476 22.0606 18.6972 22.3231 18.571 22.649C18.4449 22.9749 18.4534 23.3375 18.5946 23.6572L18.6787 23.8674C18.6749 24.0711 18.7156 24.2731 18.7979 24.4595C18.8801 24.6459 19.0021 24.812 19.1552 24.9465V25.1006C19.235 25.2703 19.3481 25.4222 19.4877 25.5474C19.6273 25.6726 19.7906 25.7684 19.968 25.8294L19.8278 26.1797C19.4989 26.0608 19.1362 26.0774 18.8195 26.2259C18.5028 26.3744 18.2581 26.6426 18.1391 26.9715C18.0202 27.3004 18.0368 27.6632 18.1853 27.9798C18.3338 28.2965 18.602 28.5413 18.9309 28.6602L18.034 31.2668ZM23.3174 19.3969L23.6537 19.2427L23.976 20.1256C24.0783 20.3751 24.2504 20.5897 24.4716 20.7438C24.6928 20.8979 24.9538 20.985 25.2233 20.9945C25.3767 20.9949 25.5289 20.9664 25.6717 20.9104C26.0137 20.7864 26.2941 20.5344 26.4536 20.2075C26.6131 19.8806 26.6393 19.5045 26.5266 19.1586V19.0465H30.6468H30.7308C34.3885 20.9524 35.4256 23.3629 35.6919 24.9605L30.9411 22.8443L31.4876 21.7933C31.5667 21.6387 31.6147 21.47 31.6286 21.2969C31.6426 21.1238 31.6223 20.9497 31.5689 20.7844C31.5156 20.6191 31.4302 20.466 31.3177 20.3337C31.2051 20.2014 31.0676 20.0926 30.913 20.0135C30.7584 19.9343 30.5898 19.8864 30.4167 19.8725C30.2436 19.8585 30.0694 19.8788 29.9041 19.9322C29.7389 19.9855 29.5857 20.0709 29.4534 20.1834C29.3212 20.296 29.2124 20.4335 29.1332 20.5881L28.5306 21.7793C28.2917 21.6711 28.0257 21.6374 27.7673 21.6828C27.509 21.7282 27.2704 21.8505 27.0827 22.0337C26.8949 22.2169 26.7669 22.4524 26.7152 22.7096C26.6635 22.9667 26.6905 23.2335 26.7929 23.475L27.2834 24.7362C30.5907 32.6402 36.2244 48.0978 37.6118 64.2001H33.1413C31.7245 48.8998 28.4249 33.8328 23.3174 19.3408V19.3969ZM62.3047 70.2682L59.1515 73.4214H6.03792L2.89875 70.2682V66.9188H62.3047V70.2682Z" fill="#CBD5E1"/>
</svg>
