<svg width="59" height="56" viewBox="0 0 59 56" fill="none" xmlns="http://www.w3.org/2000/svg">
<path d="M13.09 16.88H22.54C22.7637 16.8773 22.9774 16.7866 23.1346 16.6275C23.2919 16.4684 23.38 16.2537 23.38 16.03V12.19C23.38 11.9663 23.2919 11.7516 23.1346 11.5924C22.9774 11.4333 22.7637 11.3426 22.54 11.34H13.09C12.8646 11.34 12.6484 11.4295 12.489 11.5889C12.3296 11.7483 12.24 11.9645 12.24 12.19V16C12.236 16.1141 12.255 16.2279 12.2959 16.3345C12.3368 16.4411 12.3988 16.5384 12.4781 16.6205C12.5575 16.7026 12.6525 16.7679 12.7577 16.8125C12.8628 16.8571 12.9758 16.88 13.09 16.88ZM13.93 13H21.69V15.15H13.93V13Z" fill="#CBD5E1"/>
<path d="M57.4 44.08H52.55C48.43 44.08 48.05 43.23 45.96 38.55C45.69 37.93 45.38 37.26 45.05 36.55C42.23 30.43 40.67 28.14 38.12 26.35C36.25 25 33 25 31.34 25.12V16.86C31.553 16.8525 31.7558 16.7671 31.91 16.62L34.91 13.62C35.0688 13.4607 35.158 13.2449 35.158 13.02C35.158 12.7951 35.0688 12.5793 34.91 12.42L23.34 0.830017C23.1804 0.671401 22.965 0.58165 22.74 0.580017H12.82C12.595 0.58165 12.3796 0.671401 12.22 0.830017L0.670033 12.44C0.591722 12.5181 0.529591 12.6108 0.487194 12.7129C0.444798 12.815 0.422974 12.9245 0.422974 13.035C0.422974 13.1456 0.444798 13.255 0.487194 13.3571C0.529591 13.4592 0.591722 13.552 0.670033 13.63L3.67003 16.63C3.82963 16.7886 4.04503 16.8784 4.27003 16.88V28.05C4.27054 28.2704 4.35659 28.4819 4.51003 28.64L7.00003 31.15C7.15963 31.3086 7.37503 31.3984 7.60003 31.4H7.91003V48.31H1.31004C1.19841 48.31 1.08788 48.332 0.984753 48.3747C0.881626 48.4174 0.787922 48.48 0.708992 48.559C0.630062 48.6379 0.567455 48.7316 0.524738 48.8347C0.482022 48.9379 0.460033 49.0484 0.460033 49.16V52.47C0.459965 52.5801 0.482065 52.6891 0.525017 52.7904C0.567968 52.8918 0.630891 52.9835 0.710033 53.06L3.22004 55.57C3.29842 55.6495 3.39185 55.7125 3.49487 55.7554C3.59789 55.7983 3.70843 55.8203 3.82003 55.82H54.89C55 55.8195 55.1088 55.7972 55.2101 55.7542C55.3114 55.7113 55.4032 55.6487 55.48 55.57L58 53.06C58.1541 52.8982 58.24 52.6834 58.24 52.46V44.92C58.2374 44.698 58.1481 44.4859 57.9911 44.3289C57.8342 44.1719 57.622 44.0826 57.4 44.08ZM37.15 27.72C39.21 29.16 40.55 30.8 43.51 37.23C43.85 37.96 44.14 38.63 44.42 39.23C46.54 43.98 47.34 45.76 52.55 45.76H56.55V48.3H50.17C47.47 48.3 44.87 46.3 43.02 42.92C42.54 42.04 42.02 40.85 41.46 39.58C39.52 35.18 37.11 29.7 33.51 29.7H30L31.07 28.63C31.1495 28.5516 31.2125 28.4582 31.2554 28.3552C31.2983 28.2522 31.3203 28.1416 31.32 28.03V26.81C33 26.71 35.77 26.76 37.15 27.72ZM23.83 48.31V31.4H26V48.31H23.83ZM20.83 48.31V31.4H22.1V48.31H20.83ZM16.69 48.31V45.77H19.14V48.31H16.69ZM13.63 48.31V31.4H15V48.31H13.63ZM21.9 29.71H13.67V23.54L15.67 21.54H19.9L21.9 23.54V29.71ZM19.14 39.26H16.73V36.16H19.18L19.14 39.26ZM16.73 41H19.18V44.13H16.73V41ZM19.18 34.52H16.73V31.4H19.18V34.52ZM27.64 31.45H33.51C36.01 31.45 38.26 36.58 39.91 40.32C40.48 41.62 41.02 42.85 41.53 43.79C42.4472 45.5759 43.7483 47.1366 45.34 48.36H27.64V31.45ZM2.47004 13L13.17 2.26002H22.39L33.11 13L31.31 14.8L21.58 5.10002C21.5016 5.02058 21.4082 4.95756 21.3052 4.91463C21.2022 4.87171 21.0916 4.84974 20.98 4.85002H14.62C14.5084 4.84974 14.3979 4.87171 14.2949 4.91463C14.1919 4.95756 14.0984 5.02058 14.02 5.10002L4.52003 14.59L4.28003 14.83L2.47004 13ZM6.00003 27.7V15.54L15 6.54002H20.66L29.66 15.54V27.69L27.66 29.69H23.66V23.19C23.6603 23.0784 23.6383 22.9679 23.5954 22.8649C23.5525 22.7618 23.4895 22.6684 23.41 22.59L20.9 20.08C20.8216 20.0006 20.7282 19.9376 20.6252 19.8946C20.5222 19.8517 20.4116 19.8297 20.3 19.83H15.34C15.115 19.8317 14.8996 19.9214 14.74 20.08L12.23 22.59C12.0714 22.7496 11.9817 22.965 11.98 23.19V29.71H8.00003L6.00003 27.7ZM9.66003 31.4H12V48.31H9.62003L9.66003 31.4ZM56.55 52.11L54.55 54.11H4.19003L2.19003 52.11V50H56.55V52.11Z" fill="#CBD5E1"/>
<path d="M43.83 13.9H52.83C53.5341 13.8994 54.231 13.7584 54.88 13.4854C55.529 13.2124 56.1171 12.8128 56.61 12.31C57.3211 11.5796 57.8042 10.6579 58.0002 9.65747C58.1963 8.65706 58.0968 7.62122 57.714 6.67638C57.3312 5.73155 56.6816 4.91861 55.8445 4.3368C55.0074 3.75499 54.019 3.42948 53 3.40002C52.4679 2.53439 51.722 1.82028 50.8341 1.32639C49.9461 0.832501 48.946 0.575465 47.93 0.580015C47.319 0.578455 46.7116 0.672942 46.13 0.860016C44.9191 1.25711 43.8661 2.02942 43.1236 3.06503C42.381 4.10064 41.9875 5.34577 42 6.62002C41.2793 6.99476 40.6969 7.58945 40.3373 8.31774C39.9776 9.04604 39.8595 9.87001 40 10.67C40.1517 11.5751 40.6202 12.3968 41.3218 12.9884C42.0233 13.5801 42.9123 13.9032 43.83 13.9ZM43.14 8.00002C43.62 7.83002 43.75 7.62002 43.69 7.14002C43.6119 6.53777 43.663 5.92581 43.8396 5.3448C44.0163 4.76379 44.3146 4.22703 44.7147 3.77018C45.1148 3.31333 45.6075 2.94685 46.1602 2.6951C46.7128 2.44334 47.3127 2.31207 47.92 2.31001C48.6855 2.30891 49.4372 2.5146 50.0955 2.90536C50.7538 3.29612 51.2943 3.85744 51.66 4.53002C51.743 4.72206 51.8841 4.88324 52.0635 4.99088C52.2429 5.09851 52.4515 5.14717 52.66 5.13001H52.86C53.3275 5.13001 53.7904 5.2221 54.2223 5.40101C54.6543 5.57991 55.0467 5.84214 55.3773 6.17271C55.7079 6.50329 55.9701 6.89574 56.149 7.32766C56.3279 7.75958 56.42 8.22251 56.42 8.69002C56.42 9.15752 56.3279 9.62045 56.149 10.0524C55.9701 10.4843 55.7079 10.8767 55.3773 11.2073C55.0467 11.5379 54.6543 11.8001 54.2223 11.979C53.7904 12.1579 53.3275 12.25 52.86 12.25H43.86C43.3313 12.2747 42.8119 12.1054 42.3993 11.7739C41.9868 11.4424 41.7096 10.9716 41.62 10.45C41.5248 9.9259 41.6276 9.38512 41.9084 8.93247C42.1893 8.47982 42.6281 8.14754 43.14 8.00002Z" fill="#CBD5E1"/>
</svg>
