<svg width="140" height="99" viewBox="0 0 140 99" fill="none" xmlns="http://www.w3.org/2000/svg">
<path d="M18.002 89.0235L27.1904 79.8351H56.9832L72.7722 96.0827" stroke="#CBD5E1" stroke-width="2.5" stroke-miterlimit="10" stroke-linecap="round" stroke-linejoin="round"/>
<path d="M125.626 97H82.8451L77.1453 91.3002V89.8916L132.669 90.039L138.369 84.3229V83.0945H69.1362" stroke="#CBD5E1" stroke-width="2.5" stroke-miterlimit="10" stroke-linecap="round" stroke-linejoin="round"/>
<path d="M61.1761 17.9728C61.1761 17.9728 59.8331 11.6998 50.6938 11.7489C41.5545 11.7981 39.9985 18.1858 39.9985 18.1858L50.0714 18.0875L61.1761 17.9728Z" stroke="#CBD5E1" stroke-width="2.5" stroke-miterlimit="10" stroke-linecap="round" stroke-linejoin="round"/>
<path d="M49.9895 14.468V17.4489" stroke="#CBD5E1" stroke-width="2.5" stroke-miterlimit="10" stroke-linecap="round" stroke-linejoin="round"/>
<path d="M54.035 15.7946V17.3997" stroke="#CBD5E1" stroke-width="2.5" stroke-miterlimit="10" stroke-linecap="round" stroke-linejoin="round"/>
<path d="M59.5219 18.6117V20.2168" stroke="#CBD5E1" stroke-width="2.5" stroke-miterlimit="10" stroke-linecap="round" stroke-linejoin="round"/>
<path d="M54.8048 21.4944L55.7057 23.2633" stroke="#CBD5E1" stroke-width="2.5" stroke-miterlimit="10" stroke-linecap="round" stroke-linejoin="round"/>
<path d="M64.8286 24.1477L62.9614 24.8192" stroke="#CBD5E1" stroke-width="2.5" stroke-miterlimit="10" stroke-linecap="round" stroke-linejoin="round"/>
<path d="M65.4182 27.5544L64.157 28.0131" stroke="#CBD5E1" stroke-width="2.5" stroke-miterlimit="10" stroke-linecap="round" stroke-linejoin="round"/>
<path d="M80.634 26.3751C80.634 26.3751 81.9443 20.0857 73.5584 16.4496C65.1725 12.8136 61.1761 18.022 61.1761 18.022L70.4301 22.002L80.634 26.3751Z" stroke="#CBD5E1" stroke-width="2.5" stroke-miterlimit="10" stroke-linecap="round" stroke-linejoin="round"/>
<path d="M63.3217 18.6117L66.4828 20.2823C67.1216 21.134 67.7112 22.1986 68.2026 23.5417C70.8723 30.781 66.2863 33.6637 66.2863 33.6637L62.9941 24.8847L62.0933 22.69L63.3217 18.6117Z" stroke="#CBD5E1" stroke-width="2.5" stroke-miterlimit="10" stroke-linecap="round" stroke-linejoin="round"/>
<path d="M71.5602 19.2341L70.3482 21.953" stroke="#CBD5E1" stroke-width="2.5" stroke-miterlimit="10" stroke-linecap="round" stroke-linejoin="round"/>
<path d="M60.5701 10.2913L57.7857 11.3395" stroke="#CBD5E1" stroke-width="2.5" stroke-miterlimit="10" stroke-linecap="round" stroke-linejoin="round"/>
<path d="M68.4155 15.1558C64.3372 14.9756 62.0114 17.0885 61.3727 17.7764C61.3072 15.6635 62.0114 11.5197 67.6621 8.27675C75.5894 3.7071 79.8478 8.48967 79.8478 8.48967L70.2499 14.0748L68.4155 15.1558Z" stroke="#CBD5E1" stroke-width="2.5" stroke-miterlimit="10" stroke-linecap="round" stroke-linejoin="round"/>
<path d="M68.6939 11.5525L70.168 14.1403" stroke="#CBD5E1" stroke-width="2.5" stroke-miterlimit="10" stroke-linecap="round" stroke-linejoin="round"/>
<path d="M38.9994 79.311C43.913 52.9577 54.2971 29.8802 56.5573 24.4752L57.0323 23.2632L48.2206 27.1941C48.2206 27.1941 46.9267 21.8055 53.773 18.2349C54.4609 17.8746 55.116 17.5962 55.7548 17.3832L61.1597 17.3341" stroke="#CBD5E1" stroke-width="2.5" stroke-miterlimit="10" stroke-linecap="round" stroke-linejoin="round"/>
<path d="M63.3217 18.6117C63.3217 18.6117 51.7748 55.1034 49.9895 79.8188" stroke="#CBD5E1" stroke-width="2.5" stroke-miterlimit="10" stroke-linecap="round" stroke-linejoin="round"/>
<path d="M64.3208 10.7991C64.2062 10.4551 64.0915 10.1112 63.9605 9.75085C60.6848 1.21756 54.1661 2.02012 54.1661 2.02012L59.915 15.942L60.5701 17.4324" stroke="#CBD5E1" stroke-width="2.5" stroke-miterlimit="10" stroke-linecap="round" stroke-linejoin="round"/>
<path d="M103.744 73.7587C112.41 73.7587 119.435 66.7337 119.435 58.068C119.435 49.4022 112.41 42.3772 103.744 42.3772C95.0785 42.3772 88.0535 49.4022 88.0535 58.068C88.0535 66.7337 95.0785 73.7587 103.744 73.7587Z" stroke="#CBD5E1" stroke-width="2.5" stroke-miterlimit="10" stroke-linecap="round" stroke-linejoin="round"/>
<path d="M18.4606 23.9677L37.0667 79.8353" stroke="#CBD5E1" stroke-width="2.5" stroke-miterlimit="10" stroke-linecap="round" stroke-linejoin="round"/>
<path d="M47.4672 35.2362C47.4672 35.2362 36.9521 21.0031 19.4597 27.0141C3.26116 32.5828 2.85169 46.3409 2 50.1408C3.50684 47.3728 10.0583 45.047 11.4341 48.1589C10.7953 44.916 23.3414 39.8713 25.0939 43.9332C24.5043 39.8386 37.1978 35.6948 38.9994 39.2653C38.0331 36.5301 43.8311 33.1725 47.4672 35.2362Z" stroke="#CBD5E1" stroke-width="2.5" stroke-miterlimit="10" stroke-linecap="round" stroke-linejoin="round"/>
<path d="M38.9994 39.2653C38.9994 39.2653 31.8092 24.3116 19.4597 27.014C19.4597 27.014 9.04283 30.3553 11.4341 48.1589" stroke="#CBD5E1" stroke-width="2.5" stroke-miterlimit="10" stroke-linecap="round" stroke-linejoin="round"/>
</svg>
