<svg width="160" height="100" viewBox="0 0 160 100" fill="none" xmlns="http://www.w3.org/2000/svg">
<path d="M89.5861 11.8373C89.1215 11.6573 88.7263 11.2494 88.481 10.6969C88.7497 11.1794 89.1332 11.5281 89.5699 11.6867C89.5379 11.3858 89.4478 11.1009 89.3083 10.8597C89.1688 10.6184 88.9846 10.4289 88.7736 10.3096C88.6059 10.2325 88.4277 10.2041 88.251 10.2264C88.0743 10.2486 87.9033 10.3211 87.7497 10.4387C88.286 10.6754 88.4648 12.117 89.5861 11.8373Z" fill="#CBD5E1"/>
<path d="M90.0249 11.2779C89.6736 10.6597 89.4955 9.89909 89.5211 9.12622C89.5167 9.90903 89.7177 10.6696 90.0899 11.2779C90.2325 10.9508 90.3076 10.5797 90.3076 10.202C90.3076 9.82435 90.2325 9.45331 90.0899 9.12622C89.959 8.87813 89.7899 8.66941 89.5939 8.51369C89.3979 8.35797 89.1793 8.25876 88.9523 8.22253C89.3911 8.80348 88.676 10.4818 90.0249 11.2779Z" fill="#CBD5E1"/>
<path d="M91.6013 8.30866C91.1711 9.11735 90.9645 10.0975 91.0162 11.0843C91.369 10.8715 91.6724 10.538 91.8952 10.1182C92.1181 9.69835 92.2522 9.20738 92.2839 8.69595C92.2995 8.29246 92.2462 7.88951 92.128 7.51701C92.0099 7.14452 91.8298 6.81205 91.6013 6.54431C91.6013 7.81378 89.9761 8.93264 90.8375 11.1273C90.829 10.097 91.1 9.09684 91.6013 8.30866Z" fill="#CBD5E1"/>
<path d="M91.6501 11.8373C92.278 10.7279 93.1917 9.96227 94.2178 9.68571C93.2755 10.0775 92.4617 10.8818 91.9101 11.9664C92.4064 12.0938 92.9193 12.0476 93.398 11.8325C93.8768 11.6175 94.305 11.2409 94.6403 10.74C94.8799 10.3385 95.0494 9.87174 95.1365 9.37322C95.2236 8.8747 95.2262 8.35683 95.1441 7.85681C94.3803 9.12628 91.9913 8.60989 91.6501 11.8373Z" fill="#CBD5E1"/>
<path d="M92.2026 13.4296C93.505 12.8534 94.9217 12.9299 96.1843 13.6447C94.959 13.1237 93.6372 13.1616 92.4302 13.7523C92.8852 14.3796 93.4552 14.84 94.0846 15.0889C94.714 15.3378 95.3814 15.3666 96.0218 15.1724C96.5063 14.9909 96.9551 14.6716 97.3368 14.2368C97.7185 13.802 98.024 13.2622 98.232 12.655C96.6718 13.2144 94.4291 10.3097 92.2026 13.4296Z" fill="#CBD5E1"/>
<path d="M69.5479 7.2113H69.4667C69.458 7.24624 69.458 7.28394 69.4667 7.31888C69.46 8.92054 69.2625 10.5108 68.8816 12.031V12.2031C68.7843 12.6426 68.6421 13.0625 68.4591 13.4511L68.3453 13.6232L68.2153 13.7523C68.2153 13.7523 68.0853 13.7523 68.0528 13.6017C68.0381 13.4733 68.0381 13.3427 68.0528 13.2144C68.0528 13.0423 68.0528 12.7841 68.0528 12.4183L68.1503 11.1918L68.2478 9.92237C68.3047 9.39431 68.3047 8.85822 68.2478 8.33015C68.2324 8.19484 68.1916 8.06682 68.1291 7.9578C68.0667 7.84878 67.9845 7.76227 67.8903 7.70618C67.7942 7.6743 67.6938 7.6743 67.5977 7.70618C67.5038 7.73723 67.4189 7.80465 67.354 7.89983C67.2289 8.04103 67.1384 8.22827 67.0939 8.43774C67.0537 8.62772 67.0537 8.8287 67.0939 9.01868V9.1693V9.01868C67.0376 8.82479 67.0376 8.61012 67.0939 8.41622C67.1453 8.30304 67.2263 8.21879 67.3215 8.17954C67.3412 8.16443 67.3636 8.15648 67.3865 8.15648C67.4093 8.15648 67.4317 8.16443 67.4515 8.17954L67.549 8.30864C67.5888 8.37876 67.6165 8.45954 67.6302 8.54532C67.6421 8.67394 67.6421 8.804 67.6302 8.93262C67.666 9.71476 67.6497 10.4995 67.5815 11.2779C67.4889 12.0404 67.4889 12.8176 67.5815 13.5802C67.5934 13.6724 67.6198 13.7603 67.6589 13.8381C67.6981 13.916 67.7493 13.982 67.809 14.032C67.8987 14.0714 67.9956 14.0714 68.0853 14.032H68.2316C68.5837 13.5872 68.8223 13.008 68.9141 12.3752V12.2461C69.2985 10.6651 69.5172 9.02169 69.5642 7.36192L69.5479 7.2113Z" fill="#CBD5E1"/>
<path d="M70.2628 9.40504H70.3439C70.3609 9.36588 70.3699 9.32145 70.3699 9.27622C70.3699 9.231 70.3609 9.18657 70.3439 9.1474V9.04005C70.3217 9.02309 70.2965 9.01416 70.2709 9.01416C70.2453 9.01416 70.2201 9.02309 70.1979 9.04005C70.1817 9.09527 70.1817 9.15659 70.1979 9.21181C70.1978 9.24826 70.2035 9.28433 70.2147 9.31764C70.2259 9.35095 70.2423 9.38074 70.2628 9.40504Z" fill="#CBD5E1"/>
<path d="M69.7755 11.2779C69.7858 11.3599 69.8122 11.4369 69.8522 11.5011C69.8921 11.5654 69.9441 11.6145 70.003 11.6436C70.0504 11.6649 70.1018 11.6649 70.1493 11.6436C70.2718 11.618 70.3853 11.5429 70.4743 11.4285C70.5773 11.2332 70.6645 11.024 70.7343 10.8045V10.6324C70.7647 10.789 70.8083 10.9405 70.8643 11.0842C70.8933 11.1557 70.9352 11.2167 70.9862 11.2617C71.0372 11.3067 71.0958 11.3344 71.1568 11.3424H71.3031C71.4981 11.3424 71.6606 11.0197 71.8069 10.5248C71.7913 10.6963 71.7913 10.8697 71.8069 11.0412V11.2348C71.83 11.3438 71.8757 11.4419 71.939 11.518C72.0022 11.5941 72.0803 11.6451 72.1644 11.6651C72.2174 11.6867 72.274 11.6867 72.327 11.6651C72.4895 11.6651 72.6357 11.3854 72.782 11.0197C72.9283 10.6539 72.9283 10.6108 73.0095 10.3311C73.0473 10.447 73.1171 10.5393 73.2045 10.5893C73.2575 10.6109 73.3141 10.6109 73.3671 10.5893C73.4294 10.5675 73.4857 10.5227 73.5296 10.4602C73.6063 10.3267 73.6717 10.1824 73.7246 10.0299L73.8059 9.83625V9.98687C73.8059 10.2235 73.9521 10.3742 74.0984 10.3957C74.1464 10.4121 74.1967 10.4121 74.2446 10.3957C74.4249 10.2487 74.558 10.0189 74.6184 9.75019C74.742 9.39219 74.8347 9.01686 74.8947 8.63133C74.8448 8.93792 74.7797 9.23981 74.6997 9.53502C74.653 9.76056 74.5568 9.96271 74.4234 10.116H74.2934C74.2896 10.0803 74.2896 10.0441 74.2934 10.0084C74.2934 10.0084 74.2934 9.9008 74.2934 9.85777C74.2798 9.66454 74.2798 9.47006 74.2934 9.27682C74.3377 9.02922 74.3377 8.77136 74.2934 8.52375C74.2881 8.48678 74.2768 8.4518 74.2602 8.42124C74.2436 8.39068 74.2222 8.36529 74.1974 8.34685C74.1726 8.3284 74.1451 8.31735 74.1168 8.31445C74.0885 8.31156 74.06 8.3169 74.0334 8.3301C73.9998 8.34215 73.9697 8.36689 73.9466 8.40128C73.9235 8.43567 73.9085 8.47823 73.9034 8.52375C73.8896 8.62334 73.8896 8.72539 73.9034 8.82498L73.7734 8.65285C73.6946 8.61504 73.6083 8.61504 73.5296 8.65285C73.4698 8.67127 73.4141 8.70813 73.3671 8.76043C73.2094 8.99659 73.0929 9.27571 73.0258 9.57805C73.0114 9.74246 73.0114 9.90852 73.0258 10.0729V10.2235C73.0258 10.4172 72.9283 10.5678 72.8958 10.6754C72.8214 10.988 72.687 11.2698 72.5057 11.493C72.488 11.5044 72.4686 11.5104 72.4489 11.5104C72.4291 11.5104 72.4097 11.5044 72.392 11.493C72.2945 11.493 72.2295 11.493 72.1969 11.2563C72.1763 11.0853 72.1763 10.911 72.1969 10.7399C72.1815 10.4534 72.1815 10.1658 72.1969 9.87929C72.6272 9.4565 72.932 8.84743 73.0583 8.15797C73.1216 7.81881 73.1216 7.46434 73.0583 7.12518C73.0527 7.06805 73.0527 7.01019 73.0583 6.95305C73.0583 6.7594 72.912 6.67334 72.8308 6.67334H72.6845C72.5979 6.70109 72.519 6.76077 72.457 6.84547C72.2698 7.1655 72.1317 7.53099 72.0507 7.92129C71.8711 8.61464 71.7725 9.3402 71.7582 10.0729C71.6918 10.3867 71.5691 10.6746 71.4006 10.9121L71.2706 11.0197C71.2526 11.0297 71.2333 11.0349 71.2137 11.0349C71.1942 11.0349 71.1748 11.0297 71.1568 11.0197C71.1201 10.955 71.0926 10.8821 71.0756 10.8045C71.0676 10.7188 71.0676 10.632 71.0756 10.5463V10.4172C71.0756 10.1805 71.0756 9.92232 71.0756 9.68564C71.4698 9.29916 71.7511 8.74433 71.8719 8.11494C71.927 7.83268 71.927 7.53654 71.8719 7.25428V7.06064C71.8719 6.91002 71.7419 6.84547 71.6769 6.84547H71.5306C71.4488 6.87357 71.3752 6.93353 71.3194 7.0176C71.1478 7.29659 71.0207 7.61861 70.9456 7.96432C70.9456 7.96432 70.9456 7.96432 70.9456 8.07191C70.8409 8.45426 70.77 8.85137 70.7343 9.25531C70.71 9.53409 70.71 9.81566 70.7343 10.0945C70.661 10.3782 70.557 10.6464 70.4255 10.8906H70.3443C70.301 10.9381 70.2514 10.9746 70.198 10.9981C70.1832 11.0095 70.1664 11.0154 70.1493 11.0154C70.1321 11.0154 70.1153 11.0095 70.1005 10.9981C70.108 10.8477 70.108 10.6967 70.1005 10.5463C70.1265 10.3699 70.1645 10.1971 70.2143 10.0299C70.2309 9.90175 70.2309 9.77076 70.2143 9.6426C70.2143 9.6426 70.2143 9.64261 70.2143 9.53502C70.1887 9.50885 70.1572 9.49466 70.1249 9.49466C70.0925 9.49466 70.0611 9.50885 70.0355 9.53502C69.938 9.53502 69.8567 9.68564 69.7917 9.9008C69.6738 10.2368 69.6234 10.6073 69.6455 10.9766C69.6153 10.9994 69.5932 11.0372 69.5841 11.0816C69.5749 11.126 69.5795 11.1734 69.5967 11.2133C69.6139 11.2532 69.6425 11.2825 69.676 11.2946C69.7095 11.3067 69.7453 11.3007 69.7755 11.2779ZM73.7246 9.44896C73.7246 9.21228 73.8709 9.08318 73.9034 9.08318C73.9034 9.08318 73.9034 9.08318 73.9846 9.08318C73.9754 9.21917 73.9754 9.35599 73.9846 9.49199V9.62109C73.9034 9.84526 73.7934 10.0491 73.6596 10.2235V10.0084C73.647 9.78957 73.6691 9.56968 73.7246 9.36289V9.44896ZM72.7333 7.77068C72.7242 7.67062 72.7242 7.5695 72.7333 7.46945C72.7333 7.2758 72.847 7.16822 72.912 7.1467C72.9645 7.21152 73.0037 7.29298 73.0258 7.38338C73.0345 7.47627 73.0345 7.57021 73.0258 7.66309C73.0114 7.84535 72.9842 8.02543 72.9445 8.201C72.8116 8.78278 72.5514 9.29939 72.1969 9.68564C72.3209 8.99505 72.5007 8.32416 72.7333 7.68461V7.77068ZM71.5144 7.98584V7.77068C71.5395 7.69355 71.5723 7.62119 71.6119 7.55551C71.6697 7.61417 71.71 7.698 71.7257 7.79219C71.7335 7.85632 71.7335 7.92171 71.7257 7.98584C71.7376 8.15042 71.7376 8.31614 71.7257 8.48072C71.6022 8.99918 71.3714 9.46137 71.0593 9.81473C71.156 9.15575 71.3087 8.51336 71.5144 7.89978V7.98584Z" fill="#CBD5E1"/>
<path d="M60.7558 15.5595H59.0982V12.0739H58.3344V16.3771H60.7558V15.5595Z" fill="#CBD5E1"/>
<path d="M63.5674 12.2891C63.2815 12.0912 62.9637 11.9878 62.641 11.9878C62.3184 11.9878 62.0006 12.0912 61.7147 12.2891C61.4525 12.4729 61.2333 12.7482 61.0809 13.0852C60.9195 13.4272 60.8339 13.8223 60.8339 14.2256C60.8339 14.6289 60.9195 15.024 61.0809 15.366C61.2333 15.703 61.4525 15.9783 61.7147 16.1621C62.0036 16.3469 62.3202 16.4429 62.641 16.4429C62.9619 16.4429 63.2785 16.3469 63.5674 16.1621C63.8355 15.9815 64.0606 15.7059 64.2174 15.366C64.3671 15.0186 64.4457 14.6255 64.4457 14.2256C64.4457 13.8257 64.3671 13.4326 64.2174 13.0852C64.0606 12.7453 63.8355 12.4697 63.5674 12.2891ZM63.5674 14.9356C63.4777 15.1411 63.3488 15.3117 63.1936 15.4305C63.0275 15.5429 62.8438 15.6019 62.6573 15.6026C62.476 15.6018 62.2975 15.5427 62.1372 15.4305C61.9821 15.3117 61.8532 15.1411 61.7635 14.9356C61.6786 14.7158 61.634 14.4725 61.6334 14.2256C61.6181 13.9492 61.6632 13.6728 61.7635 13.4295C61.8491 13.22 61.979 13.048 62.1372 12.9346C62.2975 12.8224 62.476 12.7634 62.6573 12.7625C62.8438 12.7633 63.0275 12.8222 63.1936 12.9346C63.3518 13.048 63.4817 13.22 63.5674 13.4295C63.656 13.6475 63.7008 13.892 63.6974 14.1395C63.7027 14.4174 63.6522 14.6921 63.5511 14.9356H63.5674Z" fill="#CBD5E1"/>
<path d="M67.4352 15.1077C67.4448 14.8628 67.3805 14.6229 67.2565 14.4407C67.1469 14.2697 67.0074 14.1368 66.8502 14.0534L66.2326 13.8382L65.6963 13.6231C65.6435 13.5967 65.5981 13.5496 65.5662 13.4881C65.5342 13.4265 65.5172 13.3535 65.5176 13.2788C65.518 13.2098 65.5316 13.142 65.5572 13.0818C65.5828 13.0216 65.6195 12.9709 65.6638 12.9346C65.809 12.8353 65.972 12.7906 66.1351 12.8055C66.4593 12.8103 66.7775 12.9212 67.0614 13.1282L67.289 12.3751C67.1292 12.2427 66.9532 12.148 66.7689 12.0954C66.5669 12.0279 66.3597 11.9918 66.1514 11.9878C65.8838 11.977 65.6177 12.0431 65.3713 12.1815C65.1884 12.2781 65.0304 12.4424 64.9162 12.6548C64.8072 12.855 64.7502 13.0966 64.7537 13.3434C64.7482 13.594 64.8118 13.8387 64.9325 14.0319C65.0382 14.2035 65.1794 14.3306 65.3388 14.3977C65.5413 14.491 65.7475 14.57 65.9563 14.6344L66.3464 14.7635C66.4309 14.798 66.5085 14.8568 66.5739 14.9356C66.6052 14.9644 66.6305 15.0031 66.6475 15.0482C66.6646 15.0933 66.6728 15.1434 66.6714 15.1938C66.6698 15.2596 66.6555 15.3238 66.6299 15.3803C66.6043 15.4367 66.5682 15.4836 66.5251 15.5165C66.3736 15.6137 66.2058 15.6581 66.0376 15.6456C65.84 15.6415 65.6435 15.6054 65.4525 15.538C65.2707 15.4633 65.1001 15.3467 64.9487 15.1938L64.6887 15.9469C64.8633 16.1195 65.0622 16.2439 65.2738 16.3126C65.5231 16.3991 65.7799 16.4425 66.0376 16.4417C66.2986 16.4569 66.559 16.3982 66.8014 16.2696C66.9912 16.179 67.1557 16.0139 67.2727 15.7962C67.3817 15.5961 67.4388 15.3545 67.4352 15.1077Z" fill="#CBD5E1"/>
<path d="M71.8069 14.4623C71.9336 14.2156 71.9963 13.9211 71.9857 13.6231C71.9939 13.3322 71.9313 13.0456 71.8069 12.8055C71.6876 12.5669 71.5181 12.3799 71.3194 12.2676C71.0781 12.1316 70.8177 12.0656 70.5555 12.074H69.1254V16.3772H69.8892V15.1938H70.5555C70.8177 15.2022 71.0781 15.1362 71.3194 15.0002C71.5181 14.8878 71.6876 14.7008 71.8069 14.4623ZM71.0431 14.1826C70.8859 14.3253 70.6969 14.3936 70.5068 14.3762H69.8892V12.8916H70.5068C70.6969 12.8742 70.8859 12.9424 71.0431 13.0852C71.1019 13.1509 71.1486 13.2335 71.1796 13.3267C71.2106 13.4199 71.2251 13.5214 71.2218 13.6231C71.2252 13.7281 71.2108 13.8327 71.1799 13.9294C71.149 14.0262 71.1023 14.1126 71.0431 14.1826Z" fill="#CBD5E1"/>
<path d="M74.0821 12.0739H73.3183L71.8557 16.3771H72.6357L72.9283 15.4519H74.4559L74.7484 16.3771H75.5448L74.0821 12.0739ZM73.1395 14.6989L73.6596 13.0421L74.1796 14.6989H73.1395Z" fill="#CBD5E1"/>
<path d="M78.015 15.0002C78.2187 14.8892 78.3937 14.7024 78.5188 14.4623C78.6387 14.2115 78.7008 13.9199 78.6976 13.6231C78.6986 13.3335 78.6365 13.0496 78.5188 12.8055C78.3975 12.5608 78.2213 12.3727 78.015 12.2676C77.7791 12.1333 77.5242 12.0673 77.2674 12.0739H75.8373V16.3772H76.6011V15.1723H77.2999L77.9337 16.3772H78.7463L78.015 15.0002ZM77.7387 14.1825C77.5877 14.3254 77.4038 14.3938 77.2187 14.3762H76.6011V12.8916H77.2187C77.4038 12.8739 77.5877 12.9424 77.7387 13.0852C77.7976 13.1508 77.8443 13.2335 77.8753 13.3267C77.9062 13.4199 77.9207 13.5213 77.9175 13.6231C77.9188 13.7298 77.902 13.8355 77.8682 13.9323C77.8344 14.0292 77.7846 14.1147 77.7225 14.1825H77.7387Z" fill="#CBD5E1"/>
<path d="M82.5655 14.1825C82.5682 13.8709 82.5236 13.5617 82.4342 13.2734C82.3449 12.9851 82.2127 12.7235 82.0454 12.5042C81.7137 12.0642 81.2636 11.8166 80.794 11.8157C80.4794 11.8132 80.1703 11.9248 79.9002 12.1385C79.6305 12.3454 79.4064 12.6421 79.2501 12.9991C79.0869 13.3477 79.0023 13.7509 79.0064 14.161C79.0039 14.5705 79.0809 14.9739 79.2301 15.3326C79.3793 15.6913 79.5957 15.9932 79.8584 16.2092C80.1212 16.4253 80.4214 16.5483 80.7304 16.5664C81.0394 16.5845 81.3467 16.4971 81.6229 16.3126L81.9154 16.8075H82.7117L82.1104 15.7962C82.2661 15.5833 82.3869 15.33 82.4652 15.0523C82.5435 14.7746 82.5777 14.4785 82.5655 14.1825ZM81.6879 15.0217L81.3953 14.5268H80.599L81.2653 15.5811C81.1385 15.6602 80.9991 15.6971 80.859 15.6887C80.6046 15.6943 80.3569 15.5799 80.1602 15.3659C80.0278 15.2336 79.9216 15.0607 79.8508 14.8621C79.7801 14.6634 79.7468 14.445 79.7539 14.2256C79.7509 14.0265 79.7781 13.8287 79.8339 13.6439C79.8897 13.4591 79.9731 13.2911 80.079 13.1497C80.1798 13.0125 80.3015 12.9051 80.4359 12.8347C80.5704 12.7642 80.7146 12.7323 80.859 12.7409C81.0023 12.7353 81.1447 12.7709 81.2766 12.8451C81.4085 12.9194 81.5266 13.0307 81.6229 13.1712C81.7316 13.3053 81.8169 13.469 81.8731 13.651C81.9292 13.8331 81.9547 14.0291 81.9479 14.2256C81.923 14.5193 81.8325 14.7965 81.6879 15.0217Z" fill="#CBD5E1"/>
<path d="M86.0433 12.074H85.2795V14.4408C85.2961 14.7531 85.2332 15.0637 85.1007 15.323C85.0253 15.4238 84.9331 15.4997 84.8314 15.5445C84.7298 15.5894 84.6216 15.602 84.5156 15.5812C84.0281 15.5812 83.7843 15.1939 83.7843 14.4193V12.0525H83.053V14.4623C83.029 14.729 83.0514 14.9993 83.1183 15.2528C83.1852 15.5063 83.295 15.7362 83.4392 15.9251C83.5834 16.1139 83.7582 16.2567 83.9504 16.3425C84.1426 16.4283 84.347 16.4549 84.5481 16.4203C84.7486 16.4507 84.9517 16.4211 85.1425 16.3338C85.3332 16.2465 85.5067 16.1036 85.6501 15.9157C85.7936 15.7278 85.9034 15.4997 85.9715 15.2482C86.0395 14.9966 86.064 14.7281 86.0433 14.4623V12.074Z" fill="#CBD5E1"/>
<path d="M87.4734 14.5698H89.0011V13.7952H87.4734V12.87H89.1961V12.0739H86.7096V16.3771H89.2611V15.581H87.4734V14.5698Z" fill="#CBD5E1"/>
<path d="M91.6988 14.0535L91.0813 13.8383L90.5287 13.6231C90.4772 13.5944 90.4329 13.5467 90.4013 13.4857C90.3696 13.4246 90.3518 13.3529 90.3499 13.2789C90.3535 13.2082 90.3703 13.1398 90.3986 13.0798C90.427 13.0197 90.4661 12.9699 90.5125 12.9346C90.6577 12.8353 90.8207 12.7907 90.9838 12.8055C91.303 12.8084 91.6163 12.9195 91.8938 13.1283L92.1376 12.3752C91.9729 12.2404 91.7912 12.1457 91.6013 12.0955C91.3995 12.0266 91.1921 11.9904 90.9838 11.9879C90.7216 11.9795 90.4612 12.0455 90.2199 12.1815C90.0324 12.2777 89.8691 12.4417 89.7486 12.6549C89.651 12.8611 89.6003 13.1001 89.6024 13.3434C89.5908 13.5916 89.6486 13.8367 89.7649 14.0319C89.8769 14.2042 90.0233 14.331 90.1874 14.3977C90.3892 14.494 90.5955 14.5731 90.805 14.6344L91.195 14.7635C91.2778 14.8031 91.3548 14.8613 91.4225 14.9356C91.4538 14.9644 91.4791 15.0032 91.4962 15.0483C91.5132 15.0934 91.5214 15.1434 91.52 15.1938C91.5185 15.2624 91.5025 15.329 91.4738 15.3861C91.445 15.4432 91.4048 15.4884 91.3575 15.5166C91.2123 15.6159 91.0493 15.6605 90.8862 15.6457C90.6886 15.6416 90.4922 15.6054 90.3012 15.5381C90.118 15.4674 89.947 15.3505 89.7974 15.1938L89.5374 15.9469C89.7119 16.1195 89.9108 16.2439 90.1224 16.3127C90.3662 16.3992 90.6176 16.4426 90.87 16.4418C91.1363 16.4587 91.4023 16.4001 91.6501 16.2697C91.8376 16.1735 92.0009 16.0095 92.1214 15.7963C92.2238 15.5919 92.2802 15.3531 92.2839 15.1078C92.2934 14.8629 92.2291 14.6229 92.1051 14.4408C91.9924 14.2744 91.8538 14.1422 91.6988 14.0535Z" fill="#CBD5E1"/>
<path d="M59.407 17.8404H59.7645V17.6682H59.407V17.41H59.8133V17.2379H59.2607V18.2707H59.8295V18.0986H59.407V17.8404Z" fill="#CBD5E1"/>
<path d="M60.5933 17.2379H60.4633V18.2707H60.9996V18.0986H60.5933V17.2379Z" fill="#CBD5E1"/>
<path d="M62.641 17.2594H62.3485V18.2707H62.4785V17.9694H62.641C62.7212 17.9942 62.8046 17.9942 62.8848 17.9694C62.9377 17.8932 62.9667 17.7932 62.9661 17.6897C62.9659 17.5928 62.9367 17.4999 62.8848 17.4315C62.8221 17.3367 62.7354 17.2755 62.641 17.2594ZM62.7873 17.7543H62.641H62.4785V17.367H62.641C62.6879 17.3419 62.7404 17.3419 62.7873 17.367C62.7959 17.3866 62.8004 17.4089 62.8004 17.4315C62.8004 17.4542 62.7959 17.4765 62.7873 17.4961C62.8071 17.53 62.8178 17.5716 62.8178 17.6144C62.8178 17.6572 62.8071 17.6989 62.7873 17.7328V17.7543Z" fill="#CBD5E1"/>
<path d="M63.7624 17.2594L63.4048 18.2707H63.5511L63.6486 18.0125H64.0062V18.2707H64.1524L63.7949 17.2594H63.7624ZM63.7624 17.8619L63.8924 17.4961L64.0062 17.8619H63.7624Z" fill="#CBD5E1"/>
<path d="M65.355 17.7327C65.3713 17.6626 65.3713 17.5877 65.355 17.5176C65.3549 17.4207 65.3256 17.3278 65.2738 17.2594C65.1946 17.2249 65.1092 17.2249 65.03 17.2594H64.7375V18.2707H64.8675V17.9694H65.0788L65.2413 18.2707H65.4038L65.2088 17.9264C65.2463 17.9216 65.2815 17.8997 65.3082 17.8644C65.3349 17.829 65.3514 17.7825 65.355 17.7327ZM65.0138 17.7327H64.8512V17.3455H65.0138C65.0607 17.3203 65.1131 17.3203 65.16 17.3455C65.1686 17.3651 65.1731 17.3873 65.1731 17.41C65.1731 17.4327 65.1686 17.4549 65.16 17.4746C65.1676 17.4984 65.1715 17.524 65.1715 17.5499C65.1715 17.5757 65.1676 17.6013 65.16 17.6252L65.0138 17.7327Z" fill="#CBD5E1"/>
<path d="M66.2651 17.2594L65.9076 18.2707H66.0539V18.0125H66.4114L66.4926 18.2707H66.6389L66.2976 17.2594H66.2651ZM66.1839 17.8619L66.3139 17.4961L66.4439 17.8619H66.1839Z" fill="#CBD5E1"/>
<path d="M67.2565 17.1728H67.4186L67.6618 16.9366H67.4672L67.2565 17.1728Z" fill="#CBD5E1"/>
<path d="M67.4027 17.2594H67.2727V18.2707H67.4027V17.2594Z" fill="#CBD5E1"/>
<path d="M69.7755 17.3025C69.7115 17.2806 69.6444 17.2806 69.5804 17.3025C69.511 17.2805 69.4386 17.2805 69.3692 17.3025C69.3058 17.3442 69.2544 17.4122 69.2229 17.4961C69.2064 17.5808 69.2064 17.6696 69.2229 17.7543C69.2039 17.8385 69.2039 17.9283 69.2229 18.0125C69.2544 18.0964 69.3058 18.1644 69.3692 18.2062C69.4386 18.2281 69.511 18.2281 69.5804 18.2062C69.6444 18.228 69.7115 18.228 69.7755 18.2062C69.8388 18.1644 69.8902 18.0964 69.9217 18.0125C69.947 17.9297 69.947 17.8371 69.9217 17.7543C69.9454 17.6711 69.9454 17.5793 69.9217 17.4961C69.8902 17.4122 69.8388 17.3442 69.7755 17.3025ZM69.7755 17.9264C69.7685 17.9569 69.7559 17.9846 69.7389 18.0072C69.7219 18.0297 69.701 18.0463 69.6779 18.0555C69.6359 18.0877 69.5883 18.1045 69.5398 18.1045C69.4913 18.1045 69.4437 18.0877 69.4017 18.0555L69.3042 17.9264C69.2828 17.8735 69.2717 17.8144 69.2717 17.7543C69.2717 17.6943 69.2828 17.6352 69.3042 17.5822L69.4017 17.4531H69.5479H69.6779C69.701 17.4623 69.7219 17.4789 69.7389 17.5015C69.7559 17.524 69.7685 17.5517 69.7755 17.5822C69.7968 17.6352 69.808 17.6943 69.808 17.7543C69.808 17.8144 69.7968 17.8735 69.7755 17.9264Z" fill="#CBD5E1"/>
<path d="M71.6606 18.0125L71.4006 17.2379H71.2543L71.5956 18.2707H71.7094L72.0507 17.2379H71.9044L71.6606 18.0125Z" fill="#CBD5E1"/>
<path d="M72.717 17.8404H73.0908V17.6682H72.717V17.41H73.1395V17.2379H72.587V18.2707H73.1558V18.0986H72.717V17.8404Z" fill="#CBD5E1"/>
<path d="M74.3584 17.7329C74.3747 17.6628 74.3747 17.5878 74.3584 17.5177C74.3598 17.4673 74.3516 17.4173 74.3345 17.3721C74.3175 17.327 74.2922 17.2883 74.2609 17.2595C74.1875 17.2232 74.1067 17.2232 74.0334 17.2595H73.7246V18.2708H73.8708V17.9696H74.0659L74.2284 18.2708H74.3909L74.2121 17.9265L74.3584 17.7329ZM74.0821 17.7329H73.9196V17.3456H74.0821C74.1026 17.3337 74.1247 17.3276 74.1471 17.3276C74.1695 17.3276 74.1916 17.3337 74.2121 17.3456C74.2207 17.3652 74.2252 17.3875 74.2252 17.4101C74.2252 17.4328 74.2207 17.4551 74.2121 17.4747C74.2197 17.4985 74.2236 17.5241 74.2236 17.55C74.2236 17.5759 74.2197 17.6015 74.2121 17.6253C74.1787 17.6787 74.1331 17.7165 74.0821 17.7329Z" fill="#CBD5E1"/>
<path d="M75.561 17.3025H75.3498H75.0247V18.3138H75.3498C75.4192 18.3357 75.4916 18.3357 75.561 18.3138C75.6244 18.272 75.6758 18.204 75.7073 18.1201C75.7263 18.0359 75.7263 17.9462 75.7073 17.8619C75.7238 17.7772 75.7238 17.6884 75.7073 17.6037C75.7007 17.5425 75.6842 17.484 75.6589 17.432C75.6337 17.38 75.6003 17.3359 75.561 17.3025ZM75.561 17.9265C75.554 17.9569 75.5415 17.9847 75.5245 18.0072C75.5075 18.0297 75.4865 18.0463 75.4635 18.0556H75.3172H75.1385V17.367H75.3172H75.4635C75.4635 17.367 75.4635 17.367 75.561 17.4961C75.5824 17.5491 75.5935 17.6082 75.5935 17.6683C75.5935 17.7283 75.5824 17.7874 75.561 17.8404V17.9265Z" fill="#CBD5E1"/>
<path d="M76.5198 17.8404H76.8936V17.6682H76.5198V17.41H76.9424V17.2379H76.3898V18.2707H76.9424V18.0986H76.5198V17.8404Z" fill="#CBD5E1"/>
<path d="M79.0388 18.2278C79.0208 18.2378 79.0015 18.243 78.982 18.243C78.9624 18.243 78.9431 18.2378 78.9251 18.2278H78.8438H78.9413C78.9915 18.1868 79.0311 18.1269 79.0551 18.0556C79.0718 17.9783 79.0718 17.8963 79.0551 17.8189C79.0716 17.7343 79.0716 17.6454 79.0551 17.5607L78.9088 17.3671C78.8429 17.3251 78.7707 17.3033 78.6976 17.3033C78.6244 17.3033 78.5522 17.3251 78.4863 17.3671C78.4229 17.4088 78.3716 17.4768 78.34 17.5607C78.3087 17.6405 78.2923 17.7291 78.2923 17.8189C78.2923 17.9088 78.3087 17.9974 78.34 18.0771C78.3716 18.1611 78.4229 18.229 78.4863 18.2708C78.5447 18.2929 78.6066 18.2929 78.6651 18.2708L78.7951 18.3999C78.8371 18.4196 78.883 18.4196 78.9251 18.3999H79.0388V18.2278ZM78.5513 18.0556L78.4538 17.9265C78.4324 17.8736 78.4213 17.8144 78.4213 17.7544C78.4213 17.6944 78.4324 17.6352 78.4538 17.5823C78.4775 17.529 78.5111 17.4846 78.5513 17.4532C78.5933 17.4211 78.6409 17.4042 78.6894 17.4042C78.7379 17.4042 78.7856 17.4211 78.8276 17.4532C78.8506 17.4624 78.8715 17.479 78.8885 17.5015C78.9055 17.5241 78.9181 17.5518 78.9251 17.5823C78.9464 17.6352 78.9576 17.6944 78.9576 17.7544C78.9576 17.8144 78.9464 17.8736 78.9251 17.9265C78.9181 17.957 78.9055 17.9847 78.8885 18.0072C78.8715 18.0298 78.8506 18.0464 78.8276 18.0556C78.7856 18.0877 78.7379 18.1046 78.6894 18.1046C78.6409 18.1046 78.5933 18.0877 78.5513 18.0556Z" fill="#CBD5E1"/>
<path d="M80.2252 17.7328C80.2359 17.7669 80.2415 17.8034 80.2415 17.8403C80.2415 17.8773 80.2359 17.9138 80.2252 17.9479C80.1834 17.9695 80.137 17.9695 80.0952 17.9479C80.0483 17.973 79.9958 17.973 79.9489 17.9479C79.9382 17.9138 79.9327 17.8773 79.9327 17.8403C79.9327 17.8034 79.9382 17.7669 79.9489 17.7328V17.1733H79.8189V17.7328C79.8109 17.7926 79.8136 17.854 79.8269 17.9122C79.8401 17.9703 79.8635 18.0235 79.8951 18.0675C79.9268 18.1115 79.9658 18.145 80.009 18.1654C80.0522 18.1857 80.0984 18.1923 80.144 18.1846C80.2173 18.2209 80.2981 18.2209 80.3715 18.1846C80.4058 18.0743 80.4058 17.9506 80.3715 17.8403V17.2809H80.2415L80.2252 17.7328Z" fill="#CBD5E1"/>
<path d="M81.184 17.8404H81.5416V17.6682H81.184V17.41H81.5903V17.2379H81.0378V18.2707H81.6066V18.0986H81.184V17.8404Z" fill="#CBD5E1"/>
<path d="M83.4105 17.9049L83.118 17.2379H83.0042V18.2707H83.1505V17.6252L83.378 18.1416H83.443L83.6868 17.6252V18.2707H83.8168V17.2379H83.7031L83.4105 17.9049Z" fill="#CBD5E1"/>
<path d="M84.6294 17.8404H85.0032V17.6682H84.6294V17.41H85.0519V17.2379H84.4994V18.2707H85.0682V18.0986H84.6294V17.8404Z" fill="#CBD5E1"/>
<path d="M86.2545 17.7329C86.2708 17.6628 86.2708 17.5878 86.2545 17.5177C86.2702 17.4778 86.2784 17.4336 86.2784 17.3886C86.2784 17.3437 86.2702 17.2994 86.2545 17.2595C86.1812 17.2232 86.1004 17.2232 86.027 17.2595H85.7182V18.2708H85.8645V17.9696H86.0595L86.222 18.2708H86.3845L86.1408 17.9265C86.1724 17.9134 86.2002 17.8879 86.2205 17.8533C86.2409 17.8187 86.2527 17.7767 86.2545 17.7329ZM85.9783 17.7329H85.832V17.3456H85.9783C86.0252 17.3205 86.0776 17.3205 86.1245 17.3456C86.1331 17.3652 86.1376 17.3875 86.1376 17.4101C86.1376 17.4328 86.1331 17.4551 86.1245 17.4747C86.1508 17.5075 86.1671 17.552 86.1701 17.5997C86.1731 17.6473 86.1626 17.6948 86.1408 17.7329H85.9783Z" fill="#CBD5E1"/>
<path d="M87.0834 17.8404H87.4409V17.6682H87.0834V17.41H87.4897V17.2379H86.9371V18.2707H87.5059V18.0986H87.0834V17.8404Z" fill="#CBD5E1"/>
<path d="M88.3347 17.453H88.4647C88.4949 17.4323 88.5283 17.4215 88.5623 17.4215C88.5962 17.4215 88.6297 17.4323 88.6598 17.453L88.7573 17.3239L88.6273 17.2163H88.4647C88.4008 17.1945 88.3337 17.1945 88.2697 17.2163C88.2063 17.2581 88.155 17.3261 88.1235 17.41C88.0998 17.4932 88.0998 17.585 88.1235 17.6682C88.0982 17.751 88.0982 17.8436 88.1235 17.9264C88.155 18.0103 88.2063 18.0783 88.2697 18.12C88.3337 18.1419 88.4008 18.1419 88.4647 18.12H88.6273H88.7573L88.6598 17.9909C88.5972 18.0244 88.5273 18.0244 88.4647 17.9909H88.3347C88.3117 17.9817 88.2908 17.9651 88.2738 17.9426C88.2568 17.92 88.2442 17.8923 88.2372 17.8618C88.2159 17.8089 88.2047 17.7498 88.2047 17.6897C88.2047 17.6297 88.2159 17.5706 88.2372 17.5176C88.2622 17.4802 88.2972 17.4571 88.3347 17.453Z" fill="#CBD5E1"/>
<path d="M89.5049 17.8404H89.8787V17.6682H89.5049V17.41H89.9274V17.2379H89.3748V18.2707H89.9436V18.0986H89.5049V17.8404Z" fill="#CBD5E1"/>
<path d="M91.0162 17.7328H90.8862H90.7887C90.7887 17.7328 90.7887 17.7328 90.9025 17.7328H91V17.5822H90.8862H90.7562H90.5937L90.4962 17.6897C90.4865 17.7391 90.4865 17.791 90.4962 17.8403C90.4799 17.8957 90.4799 17.9571 90.4962 18.0125H90.5937H90.7237H90.8212H90.5774H90.4799V18.1631C90.4799 18.1631 90.4799 18.1631 90.5937 18.1631H90.7562H90.9187C90.9505 18.1763 90.9845 18.1763 91.0162 18.1631C91.0593 18.1631 91.1007 18.1404 91.1311 18.1001C91.1616 18.0597 91.1787 18.005 91.1787 17.9479C91.1787 17.8909 91.1616 17.8361 91.1311 17.7958C91.1007 17.7554 91.0593 17.7328 91.0162 17.7328Z" fill="#CBD5E1"/>
<path d="M157.648 36.2154H154.982V22.2512V6.58727C154.983 6.34387 154.948 6.10265 154.878 5.87743C154.808 5.65221 154.706 5.44741 154.576 5.27477L151.716 1.48788C151.585 1.3163 151.431 1.18047 151.261 1.08816C151.091 0.995861 150.908 0.948901 150.724 0.949969H5.7606H5.46808C5.35367 0.9848 5.24403 1.04286 5.14305 1.1221H5.06179L4.76926 1.42333L0.657615 7.1467C0.411072 7.48936 0.271712 7.94295 0.267578 8.41616V90.1786C0.270232 90.6627 0.416091 91.1261 0.673867 91.4695L4.76926 96.9347L4.98053 97.1714L5.1593 97.3005H5.25681C5.30975 97.3221 5.36637 97.3221 5.41932 97.3005H5.67935H21.4596C21.6424 97.3033 21.8238 97.2581 21.9932 97.1675C22.1627 97.0769 22.3169 96.9426 22.4469 96.7725C22.5769 96.6024 22.6801 96.3998 22.7506 96.1765C22.821 95.9532 22.8573 95.7136 22.8572 95.4716V24.1877H141.575V36.323H121.553L116.076 37.5494C115.75 37.6249 115.455 37.8492 115.241 38.1834C115.027 38.5176 114.909 38.9404 114.906 39.3783V44.5853C114.904 44.8291 114.939 45.071 115.008 45.2968C115.077 45.5226 115.18 45.7277 115.311 45.9001C115.441 46.0725 115.596 46.2087 115.766 46.3007C115.937 46.3927 116.12 46.4386 116.304 46.4357L121.894 46.1129H122.057V91.5341C122.056 91.8474 122.115 92.1558 122.229 92.4305C122.342 92.7052 122.507 92.9372 122.707 93.1048L130.703 99.5597L130.963 99.7318H131.06C131.173 99.756 131.288 99.756 131.401 99.7318H153.552C153.918 99.7283 154.268 99.5352 154.527 99.1939L158.655 93.7288C158.913 93.3854 159.059 92.9219 159.062 92.4378V38.0658C159.064 37.8201 159.029 37.5764 158.958 37.3492C158.888 37.1219 158.783 36.9158 158.651 36.7431C158.519 36.5704 158.363 36.4347 158.19 36.344C158.018 36.2533 157.833 36.2096 157.648 36.2154ZM148.531 24.1877H152.155V36.323H148.531V24.1877ZM3.04659 9.12621L4.36297 7.31883V91.2329L3.04659 89.49V9.12621ZM21.4596 20.4008C21.2782 20.4008 21.0986 20.4481 20.931 20.54C20.7634 20.6319 20.6111 20.7667 20.4828 20.9365C20.3545 21.1063 20.2528 21.3079 20.1834 21.5298C20.114 21.7517 20.0782 21.9895 20.0782 22.2297V93.8579H7.07698V4.62927H150.091L152.138 7.34034V20.4008H21.4596ZM144.354 24.1877H145.752V36.323H144.354V24.1877ZM117.701 40.949L120.399 40.3465V42.4982L117.701 42.6273V40.949ZM124.755 46.2205H130.02V94.7831L128.639 93.6427L128.834 49.6631C128.835 49.416 128.766 49.1774 128.639 48.9961C128.572 48.911 128.493 48.8443 128.406 48.8C128.32 48.7556 128.228 48.7346 128.135 48.7379H126.705C126.519 48.7379 126.342 48.8354 126.211 49.0089C126.079 49.1824 126.006 49.4178 126.006 49.6631V91.4911L124.82 90.5013L124.755 46.2205ZM156.234 91.9644L152.983 96.2677H132.734V44.2625C132.734 44.0223 132.698 43.7845 132.629 43.5626C132.559 43.3407 132.458 43.1391 132.329 42.9693C132.201 42.7995 132.049 42.6647 131.881 42.5728C131.714 42.4809 131.534 42.4336 131.353 42.4336H123.227V39.8947H156.283L156.234 91.9644Z" fill="#CBD5E1"/>
<path d="M151.228 58.0546H137.268C136.902 58.0546 136.55 58.2473 136.291 58.5902C136.032 58.9332 135.887 59.3984 135.887 59.8835V74.3425C135.887 74.8296 136.032 75.297 136.29 75.6434C136.549 75.9898 136.9 76.1872 137.268 76.1929H151.228C151.599 76.1929 151.954 75.998 152.217 75.6509C152.479 75.3039 152.626 74.8333 152.626 74.3425V59.8835C152.626 59.6415 152.59 59.4019 152.519 59.1786C152.449 58.9553 152.346 58.7527 152.216 58.5826C152.086 58.4125 151.931 58.2782 151.762 58.1876C151.592 58.0969 151.411 58.0517 151.228 58.0546ZM149.847 72.5136H138.666V61.7554H149.847V72.5136Z" fill="#CBD5E1"/>
</svg>
